<?xml version="1.0" encoding="utf-8"?>
<!-- Generator: Adobe Illustrator 23.0.0, SVG Export Plug-In . SVG Version: 6.00 Build 0)  -->
<svg version="1.1" id="Layer_1" xmlns="http://www.w3.org/2000/svg" xmlns:xlink="http://www.w3.org/1999/xlink" x="0px" y="0px"
	 viewBox="0 0 1366 768" style="enable-background:new 0 0 1366 768;" xml:space="preserve">
<style type="text/css">
	.st0{fill:url(#SVGID_1_);}
	.st1{fill:none;stroke:#000000;stroke-miterlimit:10;}
	.st2{fill:url(#SVGID_2_);stroke:#000000;stroke-miterlimit:10;}
</style>
<g>
	
		<image style="overflow:visible;opacity:0.75;" width="1765" height="913" xlink:href="40652BFF.png"  transform="matrix(1 0 0 1 -172 -209)">
	</image>
	<g>
		<linearGradient id="SVGID_1_" gradientUnits="userSpaceOnUse" x1="-159.5" y1="240" x2="1566.9011" y2="240">
			<stop  offset="1.246007e-07" style="stop-color:#1B1464"/>
			<stop  offset="1" style="stop-color:#0071BC"/>
		</linearGradient>
		<path class="st0" d="M-139.5,676.5c98-167,479.2-354.8,938-136c434,207,636,63,749-23c91.2-69.4-169.5-625.3-153-667
			c-518-15.7-1036-31.3-1554-47C-152.8,94.5-146.2,385.5-139.5,676.5z"/>
		<path class="st1" d="M-139.5,676.5c98-167,479.2-354.8,938-136c434,207,636,63,749-23c91.2-69.4-169.5-625.3-153-667
			c-518-15.7-1036-31.3-1554-47C-152.8,94.5-146.2,385.5-139.5,676.5z"/>
	</g>
</g>
<linearGradient id="SVGID_2_" gradientUnits="userSpaceOnUse" x1="1425.5" y1="768.5" x2="1425.5" y2="768.5">
	<stop  offset="1.246007e-07" style="stop-color:#1B1464"/>
	<stop  offset="1" style="stop-color:#0071BC"/>
</linearGradient>
<path class="st2" d="M1425.5,768.5"/>
</svg>
