<?xml version="1.0" encoding="utf-8"?>
<!-- Generator: Adobe Illustrator 23.0.0, SVG Export Plug-In . SVG Version: 6.00 Build 0)  -->
<svg version="1.1" id="Слой_1" xmlns="http://www.w3.org/2000/svg" xmlns:xlink="http://www.w3.org/1999/xlink" x="0px" y="0px"
	 viewBox="0 0 3200 2000" style="enable-background:new 0 0 3200 2000;" xml:space="preserve">
<style type="text/css">
	.st0{fill:#DFEBFD;}
	.st1{fill:#BED7FB;}
	.st2{fill:#9EC3F6;}
	.st3{fill:#CDE0FB;}
	.st4{fill:#FFFFFF;}
	.st5{fill:#ADCBF9;}
	.st6{fill:#D86713;}
	.st7{fill:#F99746;}
	.st8{fill:#EE9849;}
	.st9{fill:#F1A34F;}
	.st10{opacity:0.4;fill:#D86713;}
	.st11{fill:#699DEE;}
	.st12{fill:#E9F3FE;}
	.st13{fill:#AFCDFB;}
	.st14{fill:#2B478B;}
	.st15{fill:#233862;}
	.st16{fill:#C65447;}
	.st17{fill:#FFB27D;}
	.st18{fill:#E2915A;}
	.st19{fill:#FCECDB;}
	.st20{fill:#548EE2;}
	.st21{fill:#F4D2B8;}
	.st22{fill:#568CDB;}
	.st23{fill:#B5453C;}
	.st24{fill:#ED7D2B;}
	.st25{fill:#ED975D;}
	.st26{fill:#EBF3FF;}
	.st27{fill:#2E3552;}
</style>
<g>
	<g>
		
			<rect x="468.4" y="1361.8" transform="matrix(0.7358 -0.6772 0.6772 0.7358 -865.5079 829.7723)" class="st0" width="324.6" height="324.6"/>
		
			<rect x="380.6" y="1396.1" transform="matrix(0.7358 -0.6772 0.6772 0.7358 -824.116 745.1407)" class="st1" width="324.6" height="65.4"/>
	</g>
	<g>
		<polygon class="st2" points="1337.7,354 1501.5,377.3 1392.8,303.3 1387.3,327 1347.4,334.2 		"/>
		<polygon class="st3" points="1501.5,377.3 1365.2,307.1 1231.6,300.4 		"/>
		<polygon class="st3" points="1392.8,303.3 1501.5,377.3 1417.3,261.6 		"/>
	</g>
	<g>
		<path class="st4" d="M2253.5,677l-41.2,29.6l-41.4-29.2c9.2-12.9,24.3-21.5,41.4-21.5C2229.2,655.9,2244.3,664.2,2253.5,677z"/>
		<g>
			<path class="st4" d="M2212.3,583.9c-41.4,0-78,20.6-100.2,52.1l26.1,18.4c16.4-23.3,43.5-38.4,74.1-38.4
				c30.3,0,57.2,14.9,73.6,37.9l26-18.7C2289.6,604.1,2253.3,583.9,2212.3,583.9z"/>
		</g>
		<g>
			<path class="st4" d="M2212.3,447c-87.6,0-165.1,43.5-212,110.1l26.1,18.4c41.2-58.3,109.2-96.5,185.9-96.5
				c76.1,0,143.6,37.6,184.9,95.1l25.9-18.7C2376.1,489.8,2299.1,447,2212.3,447z"/>
		</g>
		<g>
			<path class="st4" d="M2212.3,521.9c-62.3,0-117.6,30.8-151.2,78.1l26.1,18.4c27.9-39,73.5-64.5,125.1-64.5
				c51.1,0,96.5,25.1,124.4,63.5l25.9-18.6C2328.9,552.2,2274.1,521.9,2212.3,521.9z"/>
		</g>
	</g>
	<path class="st5" d="M1357.8,856.4l-37.8-0.9c12.1,15.7,14.9,30.2,7.3,42.5c-7.6,12.5-25.6,22.8-52.6,30.6
		c20.4-54.4,30.7-111.7,30.7-170.5c0-127.2-49.5-251.7-142.9-344.8c-90.4-90.4-212.6-142.9-344.8-142.9c-74.2,0-146,16.5-211.2,47.9
		c0,0,0,0-0.1,0c-21-6.4-41.4-11.6-61.1-15.6c-99.5-20.2-170.1-6.2-198.8,39.3c-27.3,43.3-12.4,108.5,41.7,184.5c0,0,0,0,0,0
		c-12.1,22.4-23.8,48.9-32.3,74.3c-101.8,6.1-156.3,24-176.1,56.4c-23,37.8,8.4,88.4,109.1,137.7c13.9,6.8,28.7,13.5,44.3,20.2
		c12.1,106,60.3,208.7,139.5,287.9c44.8,44.7,97,79.9,155,104.5c177.9,75,390,39.9,534.8-104.5c43.6-43.6,78.1-94.4,102.5-150.6
		c49.7-10.3,82.3-26.4,95.3-47.7C1369.5,890.1,1368.4,873.7,1357.8,856.4z M1241.3,936.3c-33.1,5.9-74.3,9.4-122.5,9.9
		c-74.7,0.9-160.6-5-251-16.9c7.6-16.6,15.1-33.6,22.4-51c28.1,9.4,55.3,16.8,81.3,22.1c29.8,6,56.9,9,81.2,9
		c56.8,0,97.5-16.4,117.7-48.3c3.3-5.3,6-10.8,8.1-16.7h-29c-0.5,0.9-1,1.8-1.5,2.6c-14.9,23.7-48.3,36-95.2,35.9
		c-22.4,0-47.9-2.8-76-8.5c-24.4-5-50.1-11.9-76.5-20.7c7-17.5,13.8-35.2,20.3-53.3c17.7-48.7,32.8-97,45-143.3
		c99.1,14.6,202.6,15,302.1,7.5c6.3,30.5,9.5,61.7,9.5,93.4C1277.1,819.9,1265.1,879.8,1241.3,936.3z M637.8,1178.1
		c-14.1-5.1-21.2-25.3-24.8-41.4c-5.6-25.4-6.6-61-2.9-103.1c1.9-21.3,4.8-43.9,8.8-67.6c57.7,15.4,114.9,35.2,170.6,59
		c-12.5,21.6-25.2,41.7-37.9,59.9c-24.2,34.6-47.8,61.4-68.3,77.3C670.3,1172.2,651.9,1183.2,637.8,1178.1z M802.3,1002.4
		c-58.3-25.1-118.2-45.9-178.7-61.9c2.1-11,4.5-22.2,7-33.5c16.8,3.8,33.9,7.5,51.2,11.1c50.6,10.3,101,19.1,150.4,26.2
		C822.4,964.5,812.4,983.9,802.3,1002.4z M692.9,899.7c-19.5-4-38.8-8.2-57.7-12.6c8.9-37.1,19.9-75.7,32.6-115.1
		c66.4,40.8,134,74,197.9,97.6c-8,19.2-16.3,37.8-24.7,55.9C792.5,918.6,742.8,910,692.9,899.7z M530.7,399.3
		c36.9,75.6,108.1,138,184.6,179.3c-18.6,40.4-36.2,83.6-52.5,128.4c-3,8.4-6,16.7-8.9,25c-97-63.2-179.2-135.6-233.1-205.8
		c0,0,0,0,0,0C449.4,477.6,486.4,434.8,530.7,399.3z M945.6,329.3c14.1,5.1,21.2,25.3,24.8,41.4c5.6,25.4,6.6,61,2.9,103.1
		c-4,46.1-13.2,98.4-27,154.1c-67.5-11.6-134.9-30.8-197-60.9c26.5-55.2,54.4-104.4,82.4-144.5c24.2-34.6,47.8-61.4,68.3-77.3
		c10.7-8.3,25.1-17.2,37.8-17.2C940.5,328,943.2,328.4,945.6,329.3z M939.9,653c-11.9,44.8-26.6,91.5-43.7,138.6
		c-6.6,18.2-13.4,36.1-20.4,53.6c-64.2-23.6-132.4-57.3-199.4-98.9c3.5-10.1,7-20.3,10.7-30.5c15.9-43.8,33.1-85.9,51.2-125.4
		C801.6,621,870.1,640.8,939.9,653z M1142.5,433.2c59.6,59.6,99.1,131.1,119.1,206c-105.9,7.7-202.9,5.3-289.7-7.2
		c13.8-56.2,23-109.2,27.1-155.9c4.5-51.6,3.9-112.7-17-147.1C1042.7,352.2,1096.8,387.4,1142.5,433.2z M817.7,298.6
		c31.8,0,63.1,3.2,93.7,9.6c-36.1,15.7-72.9,59.4-100.9,99.5c-28.6,41-57.2,91.3-84.2,147.5c-72.9-39.6-141.7-100.3-174.6-171.8
		C628.6,328.7,720.9,298.6,817.7,298.6z M368.9,356.1c14.9-23.7,48.3-35.9,95.2-35.9c22.4,0,47.9,2.8,76,8.5
		c10.6,2.2,21.5,4.7,32.6,7.6c0,0,0,0,0,0C505.8,375,446.8,431,402.9,501.2c0,0,0,0,0,0C361.5,439.7,349.1,387.6,368.9,356.1z
		 M407.1,551.6C407.2,551.6,407.2,551.6,407.1,551.6c56.8,70.9,140.4,143.4,238.1,206.3c-13.9,42.2-25.7,83.6-35.2,123.4
		c-81-19.6-175.2-47.3-249.6-78.8c-6.2-61.7,0.5-124.1,19.1-183C386.7,596.6,396.3,573,407.1,551.6z M311.4,780.4
		c-87.8-42.8-127.9-84.2-110-113.5c14.5-23.8,67.2-39.9,148-45.8c-16.3,54.9-21.9,112-18.6,168.5
		C324.2,786.6,317.8,783.5,311.4,780.4z M605.4,901.1c-2.5,11.2-4.8,22.2-6.9,33c-5.6-1.4-11.3-2.7-16.9-4
		c-95.3-21.7-166.8-26.1-200-26.9c-8.2-24.7-14.2-50-18.1-75.9C428.5,852.4,501.6,876.4,605.4,901.1z M391.2,929.5
		c35.4,1.4,100.9,6.8,184.6,25.8c6,1.4,12,2.8,18,4.3c-4.3,25.1-7.5,49.2-9.5,71.7c-3.7,42.8-4,92.1,7.9,127.3
		c-36.3-20.4-69.6-45.7-99.5-75.6C448.3,1038.5,414,986.3,391.2,929.5z M678.4,1196.1c34-17.8,68.1-58.7,94.4-96.4
		c13.6-19.4,27.1-41,40.5-64.2c77.2,34.9,151.3,77.9,221,127.9C919.5,1224.7,790.2,1231.7,678.4,1196.1z M1142.5,1083
		c-25.4,25.5-53.4,47.6-83.6,66.2c-73.2-53.5-151.4-99.3-232.9-136.4c11.2-20.5,22.2-42.2,33-64.8c74.6,9.9,146.3,15.8,211.8,17.4
		c17.1,0.5,33.7,0.5,49.8,0.4c41.7-0.5,78.9-3,110.7-7.4C1209,1004.5,1179.2,1046.4,1142.5,1083z"/>
	<g>
		<g>
			<path class="st6" d="M1132.1,932.5l-67.4,802c0,0-7.1,48.6,29.1,48.7c59.5,0.1,295.9,0,295.9,0s-44.7-10.1-44.2-32.9
				c0.6-26.8,78.8-825.4,78.8-825.4L1132.1,932.5z"/>
			<path class="st7" d="M1408.9,1768.7c-11.7,0-237.6,0.7-295.5,0c-25.2-0.3-29.7-22.4-29.9-36.8c-0.1-6.9,0.8-11.9,0.8-11.9
				l1.8-20.8l4.5-53.1l3.9-46.9l5.1-60.3l4.3-50.9l47.9-569.9l292.2-7.6c0,0-32.9,334.2-56.2,577.4c-2.6,27.1-5.1,53.1-7.4,77.4
				c-0.7,7.7-1.5,15.3-2.1,22.7c-2.2,23-4.1,44.2-5.9,62.8c-0.9,9.8-1.7,19-2.5,27.3c-3,32.8-4.7,53.8-4.7,57.7
				c0,2.3,0.2,4.5,0.6,6.5C1370.5,1767.8,1404.5,1768.7,1408.9,1768.7z"/>
			<polygon class="st7" points="422.5,496.1 586.8,1156.1 609.2,1246.4 685.8,1553.8 2107.4,1553.8 1825.3,496.1 			"/>
			<polygon class="st8" points="422.5,496.1 399.7,503.7 655.5,1576.8 685.8,1553.8 			"/>
			<polygon class="st6" points="655.5,1576.8 2068.4,1576.8 2107.4,1553.8 685.8,1553.8 			"/>
			
				<rect x="1151.7" y="1769" transform="matrix(-1 -1.224647e-16 1.224647e-16 -1 2609.209 3552.4902)" class="st9" width="305.9" height="14.5"/>
			<polygon class="st9" points="2038.5,1358.9 1807.8,510.1 420.2,510.1 420.2,496.1 1825.3,496.1 2055.2,1357 			"/>
			<polygon class="st6" points="1379.8,1576.8 1378.2,1587.9 1090.5,1646 1094.5,1599.1 1096.4,1576.8 			"/>
			<path class="st10" d="M1408.9,1768.7c-11.7,0-237.6,0.7-295.5,0c-25.2-0.3-29.7-22.4-29.9-36.8l286.3-53.9
				c-3,32.8-4.7,53.8-4.7,57.7c0,2.3,0.2,4.5,0.6,6.5C1370.5,1767.8,1404.5,1768.7,1408.9,1768.7z"/>
			<polygon class="st10" points="1310.3,1339.7 685.8,1553.8 609.2,1246.4 			"/>
			<polygon class="st11" points="422.5,496.1 1825.3,496.1 2053,1346.2 626.9,1346.2 			"/>
		</g>
		<path class="st6" d="M1434.3,1453.6c-4.1-20.8-24.2-37.7-45.1-37.7c-20.8,0-34.5,16.9-30.4,37.7s24.2,37.7,45.1,37.7
			C1424.7,1491.4,1438.3,1474.5,1434.3,1453.6z"/>
		<polygon class="st12" points="1986.8,1309.3 673.3,1309.3 524.5,716.7 513.1,671.3 503.4,632.5 495.6,601.5 480.6,541.7 
			1775.2,541.7 1776.1,544.9 1791.6,601.5 1800.2,632.5 1810.9,671.3 1823.4,716.7 		"/>
		<polygon class="st12" points="1986.8,1311.4 673.3,1311.4 524.5,718.8 513.1,673.3 503.4,634.6 495.6,603.5 480.6,543.7 
			1775.2,543.7 1776.1,547 1791.6,603.5 1800.2,634.6 1810.9,673.3 1823.4,718.8 		"/>
		<polygon class="st13" points="1791.6,601.5 495.6,601.5 480.6,541.7 1774.7,541.7 1776.1,544.9 		"/>
		<g>
			<path class="st12" d="M516.6,571.6c-1.6-6.3,2.3-11.4,8.5-11.4s12.6,5.1,14.2,11.4c1.6,6.3-2.3,11.4-8.5,11.4
				S518.2,577.9,516.6,571.6z"/>
			
				<ellipse transform="matrix(0.662 -0.7495 0.7495 0.662 -237.1957 617.2324)" class="st12" cx="565.7" cy="571.6" rx="10" ry="12.9"/>
			<path class="st12" d="M595,571.6c-1.6-6.3,2.3-11.4,8.5-11.4s12.6,5.1,14.2,11.4c1.6,6.3-2.3,11.4-8.5,11.4
				S596.6,577.9,595,571.6z"/>
		</g>
		<g>
			<path class="st14" d="M1082.4,1311.4H952.6c-1.2-10.2-2.3-20.9-3.3-32.1c-1.7-20.1-3.1-41.7-4.1-64.1c-0.2-5.2-0.4-10.4-0.6-15.7
				c-0.2-6.7-0.5-13.5-0.7-20.3c-0.3-11.6-0.6-23.3-0.7-35c0,0,0,0,0,0c-0.2-15-0.3-30.1-0.4-45.2c0,0,0,0,0,0c0-3.8,0-7.5,0-11.3v0
				c0-3.5,0-7,0-10.5c0.1-32.4,0.6-64.2,1.3-93.7c1.5-65.4,3.9-119.9,5.2-146.1v0c0.5-10.8,0.9-16.7,0.9-16.7c0,0,0,0,0,0
				c0.3,0,2.3,0.4,5.4,1.2c2.3,0.6,5.2,1.3,8.4,2.3h0c3,0.9,6.2,2,9.7,3.3c0,0,0,0,0,0c5.9,2.3,12.2,5.1,18.1,8.7
				c0.1,0,0.2,0.1,0.3,0.1c9.7,6,18.5,14,22.5,24.5c3.4,9,11.5,57.1,21.2,121c0.3,1.8,0.5,3.7,0.8,5.5c5.1,33.9,10.7,72,16.2,110.9
				c5.9,41.2,11.8,83.3,17.2,122.3C1074.6,1253.8,1078.9,1285,1082.4,1311.4z"/>
			<path class="st15" d="M1046.1,1311.4H894.9c-2.9-12.5-5.6-24.5-8-35.8c-6.6-31.1-11-56.6-10.8-70.3c0.1-6.4,2.5-11.4,6.7-15.3
				c2.9-2.6,6.5-4.8,10.8-6.4c12.8-4.8,31.1-5.6,50.3-4.4c6.5,0.4,13.1,1,19.6,1.8c35.9,4.4,69.3,13.3,69.3,13.3s2.2,9,4.9,24.8
				c2,11.8,4.2,27.5,5.8,45.9c1,10.7,1.7,22.4,2.2,34.9C1045.8,1303.6,1045.9,1307.5,1046.1,1311.4z"/>
			<path class="st16" d="M976.3,1205.5l-1.5,10.9l-7.3,53l-1.2,9.1l-4.5,32.9H804.1c-1.2-21.7-2.4-42.9-2.6-61.4c0-2,0-4.1,0-6
				c0-27.8,2.4-48.4,10.4-53.6c9-5.9,39-4.3,70.9-0.4c3.2,0.4,6.4,0.8,9.6,1.2c18.6,2.5,37.2,5.6,52.2,8.3
				c7.8,1.4,14.5,2.6,19.8,3.7C971.8,1204.6,976.3,1205.5,976.3,1205.5z"/>
			<path class="st4" d="M801.5,847.9c0,0,86.6-56,148.6-27.3c9.9,4.6,21.2,17.3,29.3,26.2c22.4,24.7,66.3,417.5,66.3,417.5
				s-124.5,42.2-244.2-14.3V847.9z"/>
			<path class="st14" d="M955.1,819.2c0,0,87.6,35.9,99.5,63.5c11.9,27.6,50.4,197,50.4,216.9c0,19.9-67.2,4.4-78-27.6
				c-9-26.6-39.3-108.4-55.2-160.1L955.1,819.2z"/>
			<g>
				<path class="st17" d="M936.9,846.5c-19.1,3.8-47.2-0.2-67.8-13.8c9.3-22.2,13.1-39.7,14.5-51c0.1-0.6,0.1-1.2,0.2-1.8
					c0.6-5.9,0.5-9.9,0.2-11.7h49.5c0,0,13.5,6.2,13.5,10.5c0,2.3,0,4.5,0.1,6.6c0.1,5.7,0.3,10.7,0.6,14.9
					c0.9,13.9,2.5,20.4,2.5,20.4S956.2,842.7,936.9,846.5z"/>
				<path class="st18" d="M947.6,800.2c-37.5,7.2-59.2-13.2-64.1-18.5c-0.7-0.8-1-1.2-1-1.2c0.4-0.2,0.8-0.4,1.2-0.6
					c13.9-5.6,45.6-1.2,63.3,5.3C947.1,790.9,947.3,795.9,947.6,800.2z"/>
				<path class="st17" d="M871.3,760.1c6.7,36,53.2,34.8,73.3,32.6c5.7-0.6,9.2-1.4,9.2-1.4c6.4-1.7,9.9-11.7,11.6-24.9
					c3.3-26-0.9-64.2-5.3-74c-6.6-14.7-19.1-30.6-65.9-19.1C847.4,684.8,862.7,713.9,871.3,760.1z"/>
				<path class="st15" d="M961.8,672.3c-6.4-8.9-20-19.7-32.3-26.4c-26.5-14.3-60.4,0.5-60.5,0.5c-38.2,16.8-48.2,46.1-28,91.7
					c21.4,48.2,41.9,42.8,41.9,42.8s-4.3-2.7-3.9-17.7c0-0.9,0.1-1.6,0.1-2.2c0.2-3.1-0.9-6.2-3.2-8.2c-4.8-4.2-7.1-17.1-3.1-20.6
					c4.8-4.3,11.5,0.9,13.7,4.9c1.9,2.8,5.3,3.8,8.4,1.9c11.9-7.5,4.2-22.6,15.5-31.8c11.4-9.2,34.5-1.5,51.5-8.8
					C984.3,690,966.7,679,961.8,672.3z"/>
			</g>
			<path class="st14" d="M968,1311.4H779.5c1.3-39.1,3.1-85.7,4.9-133c0.5-12.2,1-24.5,1.4-36.7c0.2-5.2,0.4-10.3,0.6-15.4
				c4.2-104.9,8.3-199.7,9.2-204.8c2-11.5,3.8-21.4,5.9-29.9c5.9-24.9,13.3-38.5,29.3-50.2c1.6-1.2,14.4-7.7,25.7-13.3
				c9.2-4.6,17.5-8.6,17.7-8.7v0h0c1.9,0.9,3.9,3.5,6.1,7.4c2.2,3.9,4.5,9,6.8,15c8.6,22.1,17.9,56,24.4,81.3c0,0,0,0.1,0,0.1
				c0,0,0,0,0,0c0,0,0,0,0,0c4.2,16.3,7.2,29,8,32.7c1.4,6.2,3.3,18.1,5.6,34.2v0c3,22,6.7,51.9,10.5,85.8v0c0.4,3.5,0.8,7,1.2,10.6
				c0.5,4.1,0.9,8.2,1.4,12.3v0c0.1,1.3,0.3,2.7,0.4,4v0c1.5,13.4,3,27.3,4.5,41.4c0,0,0,0,0,0c1.3,11.6,18.9,20,20.1,31.8
				c0.1,0.9,0.2,2.6,0.3,5c0.2,5,0.5,12.9,0.8,22.1c0.1,4.1,0.3,8.4,0.4,12.8c0.7,19.7,1.5,41.2,2.5,51.6c0,0.5,0.1,1.1,0.1,1.9
				c0.1,2.1,0.2,5.1,0.3,8.9C967.9,1286.5,968,1298.1,968,1311.4z"/>
			<path class="st15" d="M839.4,963.7c-0.1,0.2-3,106.1,76.6,118.9c79.6,12.9,26.7,16.3,26.7,16.3s-149.8-6.4-152.3-10.3
				C788,1084.6,839.4,963.7,839.4,963.7z"/>
			<path class="st15" d="M906.7,1128.1c0,0-1.5,1.1-4.4,2.9c0,0-0.1,0.1-0.1,0.1c-12.1,7.8-48.2,28.9-100.7,43.1
				c-5.5,1.5-11.2,2.9-17.1,4.2c0.5-12.2,0.9-24.5,1.4-36.7c-6.9-0.5-13.6-1.4-19.7-2.7c0.2-1.6,0.4-3.2,0.6-4.8
				c6.7-2.7,13.3-5.4,19.7-7.9c5.2-2,10.3-4,15-5.8c21.6-8.2,37.5-13.7,37.5-13.7l63.8,20.2L906.7,1128.1z"/>
			<path class="st14" d="M923.6,1126.3c0,0-8.2,2-21.3,4.7c0,0-0.1,0-0.1,0c-24.1,4.8-64.5,11.6-100.7,11.3
				c-5.3-0.1-10.6-0.3-15.6-0.7c-6.9-0.5-13.6-1.4-19.7-2.7c-13.2-2.8-24.3-7.5-31.5-14.9c-53.8-54.8,29.3-251.4,46.8-270.5
				c20.4-22.3,57.6-30.2,78.2-32.9c0.9-0.1,1.7-0.2,2.5-0.3c7.2-0.9,11.9-1,12.1-1c0,0,0,0,0,0s-1.6,5.2-4.3,14
				c-1,3.4-2.3,7.3-3.6,11.8c-12.6,41.4-37,122.7-47.7,168.5c-3.9,16.8-6,28.8-5.1,32.4c4.2,15.7,47.6,23.7,75.2,27.3
				c11.5,1.5,20.2,2.2,22.1,2.3c0.1,0,0.3,0,0.4,0l1.6,6.5l3.8,15.7l3.7,15.4L923.6,1126.3z"/>
			<polygon class="st7" points="1073.6,1220.6 888.9,1212.8 926.3,982.6 1111,990.4 			"/>
			<path class="st17" d="M911.2,1075.6c0,0,36-2.5,37.8,5.9c4.2,19.5-30.9,35.6-42.3,34.5C895.3,1114.8,902.9,1074.2,911.2,1075.6z"
				/>
			<path class="st17" d="M1100.9,1037.1c0,0-34.4-10.8-38.1-3c-8.6,18,21.8,41.8,33.2,43.3C1107.3,1079,1109.3,1037.8,1100.9,1037.1
				z"/>
			<path class="st15" d="M878,807.7c0,0-15.1,7.2-22.7,18.1c0,0,56.5,98.2,56.3,97.2C911.3,922.2,892.4,820.3,878,807.7z"/>
			<path class="st15" d="M948.4,809.1c5,1.9,14.5,11.7,16.7,17.1l6.7,85.7c0,0-14.4-62.9-21.7-91.3
				C948.3,813.4,948.6,811.2,948.4,809.1z"/>
			<path class="st16" d="M987.6,985.2c0,0,1.5-6.4,9.9-5.6c8.4,0.7,55.6,3.1,55.6,3.1s9.1-0.1,8.3,5.7L987.6,985.2z"/>
			<path class="st4" d="M933.4,768.2c0,0,6.1,5.6,16,3.9c5.9-1,9.1-8.7,9.1-8.7S947.3,761.4,933.4,768.2z"/>
		</g>
		<g>
			<g>
				<polygon class="st4" points="1808.5,839.9 1672.1,840.4 1627.9,671 1764.3,670.5 				"/>
				<g>
					<polygon class="st5" points="1730.5,692.8 1673.3,693 1672.6,690.5 1729.8,690.2 					"/>
					<polygon class="st5" points="1739.6,699.7 1667.8,700 1667.1,697.5 1738.9,697.2 					"/>
					<g>
						<polygon class="st5" points="1759.3,734.2 1666.1,734.5 1665.4,732 1758.7,731.7 						"/>
						<polygon class="st5" points="1761.5,742.4 1668.2,742.8 1667.6,740.3 1760.8,739.9 						"/>
						<polygon class="st5" points="1763.6,750.7 1670.4,751 1669.7,748.5 1763,748.2 						"/>
						<polygon class="st5" points="1765.8,759 1672.5,759.3 1671.9,756.8 1765.2,756.5 						"/>
						<polygon class="st5" points="1768,767.2 1674.7,767.6 1674,765.1 1767.3,764.7 						"/>
					</g>
					<g>
						<polygon class="st5" points="1773.2,787.3 1679.9,787.7 1679.3,785.1 1772.6,784.8 						"/>
						<polygon class="st5" points="1775.4,795.6 1682.1,795.9 1681.4,793.4 1774.7,793.1 						"/>
						<polygon class="st5" points="1777.5,803.8 1684.2,804.2 1683.6,801.7 1776.9,801.3 						"/>
						<polygon class="st5" points="1779.7,812.1 1686.4,812.4 1685.7,809.9 1779,809.6 						"/>
						<polygon class="st5" points="1781.8,820.3 1688.6,820.7 1687.9,818.2 1781.2,817.8 						"/>
					</g>
				</g>
			</g>
			<g>
				<polygon class="st4" points="1863.5,1050.3 1727.1,1050.8 1682.8,881.5 1819.3,881 				"/>
				<g>
					<polygon class="st5" points="1785.4,903.2 1728.2,903.4 1727.6,900.9 1784.8,900.7 					"/>
					<polygon class="st5" points="1794.6,910.2 1722.7,910.4 1722.1,907.9 1793.9,907.7 					"/>
					<g>
						<polygon class="st5" points="1814.3,944.6 1721,945 1720.4,942.5 1813.7,942.1 						"/>
						<polygon class="st5" points="1816.5,952.9 1723.2,953.2 1722.5,950.7 1815.8,950.4 						"/>
						<polygon class="st5" points="1818.6,961.2 1725.3,961.5 1724.7,959 1818,958.6 						"/>
						<polygon class="st5" points="1820.8,969.4 1727.5,969.8 1726.8,967.2 1820.1,966.9 						"/>
						<polygon class="st5" points="1822.9,977.7 1729.7,978 1729,975.5 1822.3,975.2 						"/>
					</g>
					<g>
						<polygon class="st5" points="1828.2,997.8 1734.9,998.1 1734.2,995.6 1827.5,995.3 						"/>
						<polygon class="st5" points="1830.3,1006 1737.1,1006.4 1736.4,1003.9 1829.7,1003.5 						"/>
						<polygon class="st5" points="1832.5,1014.3 1739.2,1014.6 1738.6,1012.1 1831.8,1011.8 						"/>
						<polygon class="st5" points="1834.7,1022.5 1741.4,1022.9 1740.7,1020.4 1834,1020 						"/>
						<polygon class="st5" points="1836.8,1030.8 1743.5,1031.1 1742.9,1028.6 1836.2,1028.3 						"/>
					</g>
				</g>
			</g>
			<g>
				<polygon class="st4" points="1918.8,1262.2 1782.4,1262.7 1738.2,1093.3 1874.6,1092.8 				"/>
				<g>
					<polygon class="st5" points="1840.8,1115.1 1783.6,1115.3 1782.9,1112.8 1840.1,1112.6 					"/>
					<polygon class="st5" points="1849.9,1122 1778.1,1122.3 1777.4,1119.8 1849.2,1119.5 					"/>
					<g>
						<polygon class="st5" points="1869.6,1156.5 1776.4,1156.9 1775.7,1154.3 1869,1154 						"/>
						<polygon class="st5" points="1871.8,1164.8 1778.5,1165.1 1777.9,1162.6 1871.2,1162.3 						"/>
						<polygon class="st5" points="1874,1173 1780.7,1173.4 1780,1170.9 1873.3,1170.5 						"/>
						<polygon class="st5" points="1876.1,1181.3 1782.8,1181.6 1782.2,1179.1 1875.5,1178.8 						"/>
						<polygon class="st5" points="1878.3,1189.5 1785,1189.9 1784.3,1187.4 1877.6,1187 						"/>
					</g>
					<g>
						<polygon class="st5" points="1883.5,1209.6 1790.2,1210 1789.6,1207.5 1882.9,1207.1 						"/>
						<polygon class="st5" points="1885.7,1217.9 1792.4,1218.2 1791.7,1215.7 1885,1215.4 						"/>
						<polygon class="st5" points="1887.8,1226.2 1794.6,1226.5 1793.9,1224 1887.2,1223.6 						"/>
						<polygon class="st5" points="1890,1234.4 1796.7,1234.8 1796.1,1232.2 1889.3,1231.9 						"/>
						<polygon class="st5" points="1892.2,1242.7 1798.9,1243 1798.2,1240.5 1891.5,1240.2 						"/>
					</g>
				</g>
			</g>
			<g>
				<g>
					<polygon class="st4" points="1739.5,1263.6 1262.3,1265.4 1125,739.7 1187.2,672.7 1584.7,671.3 					"/>
					<polygon class="st5" points="1453.3,760.1 1285.1,760.7 1283.2,753.4 1451.4,752.7 					"/>
					<polygon class="st5" points="1480.2,780.6 1269,781.3 1267.1,774 1478.2,773.2 					"/>
					<g>
						<polygon class="st5" points="1538.2,881.9 1264,882.9 1262,875.5 1536.3,874.5 						"/>
						<polygon class="st5" points="1544.5,906.2 1270.3,907.2 1268.4,899.8 1542.6,898.8 						"/>
						<polygon class="st5" points="1550.9,930.4 1276.7,931.5 1274.7,924.1 1549,923.1 						"/>
						<polygon class="st5" points="1557.2,954.7 1283,955.7 1281.1,948.4 1555.3,947.4 						"/>
						<polygon class="st5" points="1563.6,979 1289.3,980 1287.4,972.6 1561.6,971.6 						"/>
					</g>
					<g>
						<polygon class="st5" points="1579,1038.1 1304.8,1039.1 1302.8,1031.7 1577.1,1030.7 						"/>
						<polygon class="st5" points="1585.3,1062.3 1311.1,1063.4 1309.2,1056 1583.4,1055 						"/>
						<polygon class="st5" points="1591.7,1086.6 1317.5,1087.6 1315.5,1080.3 1589.8,1079.3 						"/>
						<polygon class="st5" points="1598,1110.9 1323.8,1111.9 1321.9,1104.5 1596.1,1103.5 						"/>
						<polygon class="st5" points="1604.4,1135.2 1330.1,1136.2 1328.2,1128.8 1602.4,1127.8 						"/>
					</g>
				</g>
				<polygon class="st5" points="1125,739.7 1204.6,739.4 1187.2,672.7 				"/>
			</g>
		</g>
	</g>
	<g>
		<g>
			<g>
				<path class="st19" d="M2274.2,1675.9h-388.4v-137.2h389.7c30.3,0,54.9,24.6,54.9,54.9v26.2
					C2330.3,1650.8,2305.2,1675.9,2274.2,1675.9z"/>
				<path class="st11" d="M2661.9,1595.2v20.6c0,11-3,21.4-8.2,30.2c-10.4,17.9-29.8,29.9-52,29.9h-727.9c-4.8,0-8.7-3.9-8.7-8.7
					v-3.1c0-4.8,3.9-8.7,8.7-8.7h443.7c2.4-2.9,4.5-6,6.2-9.4c4.2-7.8,6.5-16.8,6.5-26.2v-26.2c0-4.8-0.6-9.5-1.8-14
					c-2-7.6-5.5-14.5-10.3-20.4h-444.4c-4.8,0-8.7-3.9-8.7-8.7v-3.1c0-4.8,3.9-8.7,8.7-8.7h731.5c25.8,0,47.5,17.3,54.3,40.9
					C2661.1,1584.6,2661.9,1589.8,2661.9,1595.2z"/>
				<path class="st20" d="M2659.7,1579.6h-331.2c-2-7.6-5.5-14.5-10.3-20.4h-444.4c-4.8,0-8.7-3.9-8.7-8.7v-3.1
					c0-4.8,3.9-8.7,8.7-8.7h731.5C2631.2,1538.7,2653,1556,2659.7,1579.6z"/>
			</g>
			<polygon class="st21" points="1885.8,1607.3 1939.7,1609.6 1885.8,1611 			"/>
			<polygon class="st21" points="1885.8,1628.9 2014,1631.2 1885.8,1632.6 			"/>
		</g>
		<g>
			<g>
				<g>
					<path class="st14" d="M1978.4,1782.4h413.5v-106.7h-416.9c-28.5,0-51.7,23.1-51.7,51.7v0
						C1923.4,1757.7,1948,1782.4,1978.4,1782.4z"/>
					<path class="st19" d="M2368.2,1782.4h470.6v-106.7H2367c-29,0-52.5,23.5-52.5,52.5v0.4
						C2314.5,1758.3,2338.5,1782.4,2368.2,1782.4z"/>
					<path class="st14" d="M2283,1782.4h572.1c4.4,0,8-3.6,8-8l0,0c0-4.4-3.6-8-8-8H2283c-4.4,0-8,3.6-8,8l0,0
						C2275.1,1778.8,2278.6,1782.4,2283,1782.4z"/>
					<path class="st14" d="M2283,1691.6h572.1c4.4,0,8-3.6,8-8l0,0c0-4.4-3.6-8-8-8H2283c-4.4,0-8,3.6-8,8l0,0
						C2275.1,1688,2278.6,1691.6,2283,1691.6z"/>
				</g>
				<polygon class="st21" points="2838.8,1729 2775.2,1730.8 2838.8,1731.9 				"/>
				<polygon class="st21" points="2838.8,1704.4 2687.6,1706.2 2838.8,1707.3 				"/>
			</g>
			<g>
				<path class="st11" d="M2689.1,1705.9c0,0,6.5,4.6,8.6,12.1c0.4,1.3,0.6,2.7,0.7,4.2c0.4,10,0,32.7,0,32.7l19.1-11.3l19.1,11.3
					v-30.7c0-5.8-1.6-11.5-4.7-15.2c-1.5-1.8-3.3-3.1-5.3-3.1H2689.1z"/>
				<path class="st22" d="M2689.1,1705.9c0,0,6.5,4.6,8.6,12.1l38.3,0.4c0,0-1.5-10.8-9.4-12.6H2689.1z"/>
			</g>
		</g>
		<g>
			<g>
				<g>
					<path class="st19" d="M2320.1,1539h422.5v-156.8h-423.9c-33.8,0-61.3,27.4-61.3,61.3v32.9C2257.4,1511,2285.5,1539,2320.1,1539
						z"/>
					<path class="st23" d="M2267.4,1443.1v33.7c0.1,14.4,8.1,26.9,19.8,33.6c5.8,3.3,12.4,5.2,19.5,5.2h458.8c5.4,0,9.7,4.4,9.7,9.7
						v4c0,5.4-4.4,9.7-9.7,9.7h-792.6c-22.7,0-42.8-11.3-55-28.6c-7.7-10.9-12.1-24.2-12.1-38.5v-26.6c0-9.8,2.2-19.1,6.3-27.4
						c10.2-21.1,31.8-35.6,56.8-35.6h796.7c5.4,0,9.7,4.4,9.7,9.7v4c0,5.4-4.4,9.7-9.7,9.7h-460.2c-11,0-21,4.7-27.9,12.2
						C2271.2,1424.5,2267.4,1433.3,2267.4,1443.1z"/>
				</g>
				<polygon class="st21" points="2742.6,1460.6 2683.7,1463.3 2742.6,1464.9 				"/>
				<polygon class="st21" points="2742.6,1424.6 2602.6,1427.2 2742.6,1428.8 				"/>
			</g>
			<g>
				<path class="st7" d="M2604.1,1426.7c0,0,9.2,5,12.3,13.1c0.5,1.4,0.9,3,1,4.6c0.5,10.9,0,35.4,0,35.4l27.3-12.3l27.2,12.3v-33.3
					c0-6.3-2.3-12.4-6.7-16.4c-2.1-1.9-4.6-3.4-7.5-3.4H2604.1z"/>
				<path class="st24" d="M2604.1,1426.7c0,0,9.2,5,12.3,13.1l54.6,0.5c0,0-2.1-11.7-13.4-13.6H2604.1z"/>
			</g>
		</g>
	</g>
	<g>
		<g>
			<path class="st15" d="M2327.4,1324.1c24.2,42.1,54.6,58.3,54.6,58.3h126.5C2508.6,1382.4,2309,1292,2327.4,1324.1z"/>
			<g>
				<path class="st17" d="M2424.6,1649.8c3.3,3.8,3.7,8,2.1,12.5c0,0,0,0,0,0.1c-3,8.3-13,17.7-24.6,27c-1.5,1.2-2.8,2.3-3.9,3.3
					c-0.3,0.3-0.6,0.5-0.9,0.8c-0.2,0.2-0.5,0.4-0.7,0.6c-10.8,10-6.7,12.2-26.1,32.4c-22.1,23-37.4,23.4-41.7,21.3
					c-3.7-1.8,3.8-14,12-27.7c0.4-0.7,0.8-1.3,1.2-2c1.1-1.8,2.2-3.7,3.3-5.5c9.7-16.5,7.2-24.3,4.9-48.8
					c-1.9-20-31.1-111.6-31.1-111.6l42.4-7.3c0,0,12.8,72.9,26.8,84.2c7.5,6,15.9,6.1,23.2,10.5c0.5,0.3,1,0.6,1.5,1
					C2417.1,1643.2,2421.3,1646,2424.6,1649.8z"/>
				<path class="st15" d="M2424.6,1649.8c3.3,3.8,3.7,8,2.1,12.5c0,0,0,0,0,0.1c-3.7,8.3-13.4,17.6-24.6,26.9
					c-1.5,1.2-2.8,2.3-3.9,3.4c-0.3,0.3-0.6,0.5-0.9,0.8c-0.2,0.2-0.5,0.4-0.7,0.6c-10.8,10-6.7,12.2-26.1,32.4
					c-22.1,23-37.4,23.4-41.7,21.3c-3.7-1.8,3.8-14,12-27.7c4.3-1.6,24.3-9.7,39.4-29.1c13.3-17,22.2-38.8,31.3-51.5
					c0.5,0.3,1,0.6,1.5,1C2417.1,1643.2,2421.3,1646,2424.6,1649.8z"/>
				<path class="st17" d="M2082.7,1623.3c-2.6,13.1-21.3,10.9-42.1,5.8s-15.9,1-45.6-2.3c-29.7-3.3-38.6-14.3-39.6-18.8
					c-0.8-3.9,13.8-5.3,29.6-7.1c2-0.2,4-0.5,5.9-0.7c17.7-2.2,30.7-13.7,46.9-23.1c15.3-8.9,38.1-45.2,38.1-45.2l40.7,3.2
					c0,0-21.3,32.4-29.6,46.5c-4.9,8.3-4.6,19.3-4,27.7C2083.4,1614,2083.7,1618.7,2082.7,1623.3z"/>
				<path class="st15" d="M2040.6,1629.1c-20.8-5.1-15.9,1-45.6-2.3c-29.7-3.3-38.6-14.3-39.6-18.8c-0.8-3.9,13.8-5.3,29.6-7.1
					l0.1,0.3c0,0,17.8,12.6,42.5,13.2c20.1,0.5,41.4-5.3,55.3-5.1c0.3,4.6,0.6,9.3-0.3,13.9
					C2080.1,1636.4,2061.5,1634.2,2040.6,1629.1z"/>
				<path class="st15" d="M2238.6,1363.2l38,102.3l49.6,133.6c0,0,13.5,1.3,26.4-2.4c11.9-3.4,25.5-12.4,25.5-12.4
					s-13.8-143.5-39.5-225.8c-6.6-21.1-14-38.2-22.1-47.9C2276.7,1263.5,2238.6,1363.2,2238.6,1363.2z"/>
				<path class="st14" d="M2277.3,1200.7c24.9-8,96,2.3,167.3,16.3l14.9-24.6l154.2-12c0,0,50.9,112.8,23,184.7
					c-4.1,10.6-12.2,17.3-26.1,17.6c0,0-2.2,0-2.3,0c0,0-91.8-0.1-121.6-0.1c-76.7,0-162.3-52.7-173.3-54.9
					c-18.1-3.6-25.4,32.6-43.5,70.7c-18.1,38.1-170.4,168.5-170.4,168.5s-23.4,0.2-33.1-3.4c-10.4-3.9-14.2-9-14.2-9
					S2221.1,1218.8,2277.3,1200.7z"/>
				<path class="st15" d="M2460.5,979.9c54.9,30.2,166.3,92.9,166.9,92.5c0,0,40.9,15.4,64.2,0c38.7-25.7,59.5-94.9-11.3-154.4
					c-35.3-29.7-60.4-36.9-64.2-84.3c-2.1-25.7-37.2-110.6-95.7-102.8c-4.9,0.7-34.9,2.1-54.7,12.4
					C2415.3,769.8,2378.2,968.2,2460.5,979.9z"/>
				<path class="st17" d="M2506.5,954.2c-0.2,0.2,27,9.5,45.2,1.4c17.1-7.6,30.1-35.8,29.9-35.8c-7.8-0.4-16.4-7.2-23-51.9l-3.3,1.2
					l-55.8,20.1c0,0,4,17.9,6.7,35C2508.4,938.5,2509.6,952.2,2506.5,954.2z"/>
				<path class="st25" d="M2499.5,889.2c0,0,4,17.9,6.7,35c32.1-5.8,44.7-37.7,49.2-55.1L2499.5,889.2z"/>
				<path class="st17" d="M2491.2,907c0,0,76.4-10.3,69.3-57.7c-7.1-47.5-2.1-80.8-51.1-76.2c-49.1,4.5-55.8,24.1-57.3,40.5
					C2450.6,829.9,2471.1,908.4,2491.2,907z"/>
				<path class="st15" d="M2454.8,787.5c0,0,48.9,42.1,82.2,45.5s45.9-7.3,45.9-7.3s-19.6-16.3-31.4-42.6
					c-3.5-7.7-10.8-13.1-19.3-13.8C2508.4,767.3,2463.4,766.4,2454.8,787.5z"/>
				<path class="st15" d="M2485.4,783.7c0,0-16.4,15.8-21.5,27.6c-5,11.3-6.5,38.4-2.5,49.2c0,0-25.5-49.6-11.1-73.6
					C2465.6,761.2,2485.4,783.7,2485.4,783.7z"/>
				<path class="st4" d="M2442.2,1066.7c2.3,154.6,0.6,122.3,17.5,137c4.1,3.5,15.5,5.6,30.6,6.6c47.4,3.1,130.8-4.7,133.9-13.4
					c10.9-30.3,3.2-39.7,12.3-86.2c1-4.9,2.1-10.3,3.5-16.1c7.6-31.9,15-42.7-12-94c-24.5-46.4-49.9-84.1-52.2-82.7
					c-64.6,38.3-69.8,6.1-69.8,6.1S2441,991.3,2442.2,1066.7z"/>
				<path class="st14" d="M2276.7,1465.5l49.6,133.6c0,0,13.5,1.3,26.4-2.4c11.9-3.4,25.5-12.4,25.5-12.4s-13.8-143.5-39.5-225.8
					L2276.7,1465.5z"/>
				<path class="st4" d="M2506.2,924.1c0,0-66.5,11.3-74.3,39.9s-53.7,196.8-53.7,196.8s33.8,6.1,49.4-9.5
					c15.6-15.6,54.3-144.8,54.3-144.8L2506.2,924.1z"/>
				<path class="st26" d="M2490.3,1210.4c47.4,3.1,130.8-4.7,133.9-13.4c10.9-30.3,3.2-39.7,12.3-86.2l-22.9-64.4
					c0,0,3.8,71.7-17.4,90.6c-21.1,18.9-86.6,36.4-96.9,52.2C2494.6,1196.7,2491.3,1204.3,2490.3,1210.4z"/>
				<path class="st17" d="M2544.7,1180.2c0,0-46.8-10.4-54.3-6.3c-7.5,4.2-26,19.3-28.3,24.5c-2.3,5.3,16.8-4,23-5.7
					c4-1.1,14.6,2.6,19.9,4.4c22.1,7.4,35.6,3.6,35.6,3.6L2544.7,1180.2z"/>
				<path class="st4" d="M2576,918c0,0,62.8,3.9,84.6,34.2c30.6,42.7,91.3,224.6,56.5,248.9c-39.2,27.3-178.4,7.1-178.4,7.1
					s-4.6-21.6,1.8-32.1c6.4-10.5,111.2-27.4,116-32.2c4.8-4.8-60.4-94.2-60.4-108.7C2596.1,1020.7,2576,918,2576,918z"/>
				<path class="st17" d="M2488.1,1187c0,0-9.8,12.6-13,14.2c-3.2,1.5-5.3,1.1-5.3,1.1l6.6-11.9L2488.1,1187z"/>
				<path class="st17" d="M2490.3,1174l-28.5,13.8c0,0,1.2,2,4.7,1.8c3.5-0.2,12.4-3.4,12.4-3.4L2490.3,1174z"/>
			</g>
			<g>
				<g>
					<polygon class="st7" points="2475.1,1220.5 2249.6,1220.5 2181.8,1051.9 2406.9,1051.9 					"/>
					<polygon class="st24" points="2247,1213.9 2544.7,1213.9 2544.7,1220.5 2249.6,1220.5 					"/>
				</g>
				<path class="st4" d="M2306.5,1136.2c-1.7-5.9,1.7-10.7,7.7-10.7s12.1,4.8,13.8,10.7c1.7,5.9-1.7,10.7-7.7,10.7
					C2314.4,1146.9,2308.2,1142.1,2306.5,1136.2z"/>
			</g>
		</g>
	</g>
	<g>
		<g>
			<path class="st13" d="M426.5,1286.7l-4.8,3.3c-5.1,3.6-12.2,2.3-15.7-2.9l-27.9-40.3c-3.6-5.1-2.3-12.2,2.9-15.7l6.9-4.8
				c1-0.7,2.4-0.4,3.1,0.6c0.7,1,0.4,2.4-0.6,3.1l-6.9,4.8c-3.1,2.2-3.9,6.5-1.7,9.6l27.9,40.3c2.2,3.1,6.5,3.9,9.6,1.7l4.8-3.3
				c3.1-2.2,3.9-6.5,1.7-9.6l-18.5-26.7c-0.7-1-0.4-2.4,0.6-3.1c1-0.7,2.4-0.4,3.1,0.6l18.5,26.7
				C432.9,1276.1,431.6,1283.2,426.5,1286.7z"/>
		</g>
		<g>
			<path class="st13" d="M457.1,1326.5l-8.6,6c-8,5.5-19.3,3.1-25.3-5.5l-42-60.6c-0.7-1-0.4-2.4,0.6-3.1c1-0.7,2.4-0.4,3.1,0.6
				l42,60.6c4.5,6.6,13.1,8.5,19.1,4.4l8.6-6c6-4.1,7.2-12.9,2.6-19.4l-47.8-69c-4.5-6.6-13.1-8.5-19.1-4.4c-1,0.7-2.4,0.4-3.1-0.6
				c-0.7-1-0.4-2.4,0.6-3.1c8-5.5,19.3-3.1,25.3,5.5l47.8,69C466.8,1309.4,465.1,1320.9,457.1,1326.5z"/>
		</g>
	</g>
	<g>
		<g>
			<path class="st13" d="M514.8,1642.8l1,8.5c1.1,9.1-5.4,17.4-14.5,18.5l-71.6,8.7c-9.1,1.1-17.4-5.4-18.5-14.5l-1.5-12.2
				c-0.2-1.8,1.1-3.4,2.8-3.6c1.8-0.2,3.4,1.1,3.6,2.8l1.5,12.2c0.7,5.5,5.7,9.5,11.3,8.8l71.6-8.7c5.5-0.7,9.5-5.7,8.8-11.3l-1-8.5
				c-0.7-5.5-5.7-9.5-11.3-8.8l-47.5,5.8c-1.8,0.2-3.4-1.1-3.6-2.8c-0.2-1.8,1.1-3.4,2.8-3.6l47.5-5.8
				C505.4,1627.2,513.7,1633.7,514.8,1642.8z"/>
		</g>
		<g>
			<path class="st13" d="M587.5,1630.2l1.9,15.3c1.7,14.2-9.3,27.3-24.5,29.1l-107.6,13.1c-1.8,0.2-3.4-1.1-3.6-2.8
				c-0.2-1.8,1.1-3.4,2.8-3.6l107.6-13.1c11.6-1.4,20.1-11.2,18.8-21.9l-1.9-15.3c-1.3-10.6-11.8-18.1-23.5-16.7L435,1629.2
				c-11.6,1.4-20.1,11.2-18.8,21.9c0.2,1.8-1.1,3.4-2.8,3.6c-1.8,0.2-3.4-1.1-3.6-2.8c-1.7-14.2,9.3-27.3,24.5-29.1l122.6-14.9
				C572,1606,585.8,1616,587.5,1630.2z"/>
		</g>
	</g>
	
		<ellipse transform="matrix(0.2298 -0.9732 0.9732 0.2298 730.7878 2182.9885)" class="st7" cx="1744.6" cy="629.8" rx="9.9" ry="9.9"/>
	<path class="st27" d="M3084.9,1789.3H191.2c-1.8,0-3.3-1.5-3.3-3.3v-1.1c0-1.8,1.5-3.3,3.3-3.3h2893.6c1.8,0,3.3,1.5,3.3,3.3v1.1
		C3088.2,1787.8,3086.7,1789.3,3084.9,1789.3z"/>
</g>
</svg>
