<?xml version="1.0" encoding="utf-8"?>
<!-- Generator: Adobe Illustrator 23.0.0, SVG Export Plug-In . SVG Version: 6.00 Build 0)  -->
<svg version="1.1" id="Слой_1" xmlns="http://www.w3.org/2000/svg" xmlns:xlink="http://www.w3.org/1999/xlink" x="0px" y="0px"
	 viewBox="0 0 3106.7 1853.6" style="enable-background:new 0 0 3106.7 1853.6;" xml:space="preserve">
<style type="text/css">
	.st0{fill:none;stroke:url(#SVGID_1_);stroke-miterlimit:10;}
	.st1{fill:#EBF3FA;}
	.st2{fill:#DFEBFD;}
	.st3{fill:#BED7FB;}
	.st4{fill:#9EC3F6;}
	.st5{fill:#CDE0FB;}
	.st6{fill:#FFFFFF;}
	.st7{fill:#ADCBF9;}
	.st8{fill:#D86713;}
	.st9{fill:#F99746;}
	.st10{fill:#EE9849;}
	.st11{fill:#F1A34F;}
	.st12{opacity:0.4;fill:#D86713;enable-background:new    ;}
	.st13{fill:#699DEE;}
	.st14{fill:#E9F3FE;}
	.st15{fill:#AFCDFB;}
	.st16{fill:#2B478B;}
	.st17{fill:#233862;}
	.st18{fill:#C65447;}
	.st19{fill:#FFB27D;}
	.st20{fill:#E2915A;}
	.st21{fill:#FCECDB;}
	.st22{fill:#548EE2;}
	.st23{fill:#F4D2B8;}
	.st24{fill:#568CDB;}
	.st25{fill:#B5453C;}
	.st26{fill:#ED7D2B;}
	.st27{fill:#ED975D;}
	.st28{fill:#EBF3FF;}
	.st29{fill:#2E3552;}
</style>
<linearGradient id="SVGID_1_" gradientUnits="userSpaceOnUse" x1="-44.7553" y1="949.1064" x2="3156.2446" y2="949.1064">
	<stop  offset="0" style="stop-color:#FFFFFF"/>
	<stop  offset="1" style="stop-color:#000000"/>
</linearGradient>
<rect x="-44.3" y="-50.9" class="st0" width="3200" height="2000"/>
<g>
	<path class="st1" d="M323.2,1734.7c0,0-337.5-362.3-57.1-754.6c248.8-348,538.9-324.2,751.7-183c90.6,60.2,352,7.4,574.4-346.8
		c303.3-483,1354.8-190.1,1163,553c-92.8,359.6,282.3,372.7,91.2,732.1L323.2,1734.7z"/>
	<g>
		
			<rect x="424.1" y="1310.9" transform="matrix(0.7358 -0.6772 0.6772 0.7358 -842.7171 786.3483)" class="st2" width="324.6" height="324.6"/>
		
			<rect x="336.4" y="1345.2" transform="matrix(0.7358 -0.6772 0.6772 0.7358 -801.3665 701.748)" class="st3" width="324.6" height="65.4"/>
	</g>
	<g>
		<polygon class="st4" points="1293.4,303.1 1457.2,326.4 1348.5,252.4 1343,276.1 1303.1,283.3 		"/>
		<polygon class="st5" points="1457.2,326.4 1320.9,256.2 1187.3,249.5 		"/>
		<polygon class="st5" points="1348.5,252.4 1457.2,326.4 1373,210.7 		"/>
	</g>
	<g>
		<path class="st6" d="M2209.2,626.1l-41.2,29.6l-41.4-29.2c9.2-12.9,24.3-21.5,41.4-21.5C2184.9,605,2200,613.3,2209.2,626.1z"/>
		<g>
			<path class="st6" d="M2168,533c-41.4,0-78,20.6-100.2,52.1l26.1,18.4c16.4-23.3,43.5-38.4,74.1-38.4c30.3,0,57.2,14.9,73.6,37.9
				l26-18.7C2245.3,553.2,2209,533,2168,533z"/>
		</g>
		<g>
			<path class="st6" d="M2168,396.1c-87.6,0-165.1,43.5-212,110.1l26.1,18.4c41.2-58.3,109.2-96.5,185.9-96.5
				c76.1,0,143.6,37.6,184.9,95.1l25.9-18.7C2331.8,438.9,2254.8,396.1,2168,396.1z"/>
		</g>
		<g>
			<path class="st6" d="M2168,471c-62.3,0-117.6,30.8-151.2,78.1l26.1,18.4c27.9-39,73.5-64.5,125.1-64.5
				c51.1,0,96.5,25.1,124.4,63.5l25.9-18.6C2284.6,501.3,2229.8,471,2168,471z"/>
		</g>
	</g>
	<path class="st7" d="M1313.5,805.5l-37.8-0.9c12.1,15.7,14.9,30.2,7.3,42.5c-7.6,12.5-25.6,22.8-52.6,30.6
		c20.4-54.4,30.7-111.7,30.7-170.5c0-127.2-49.5-251.7-142.9-344.8c-90.4-90.4-212.6-142.9-344.8-142.9c-74.2,0-146,16.5-211.2,47.9
		c0,0,0,0-0.1,0c-21-6.4-41.4-11.6-61.1-15.6c-99.5-20.2-170.1-6.2-198.8,39.3c-27.3,43.3-12.4,108.5,41.7,184.5l0,0
		c-12.1,22.4-23.8,48.9-32.3,74.3c-101.8,6.1-156.3,24-176.1,56.4c-23,37.8,8.4,88.4,109.1,137.7c13.9,6.8,28.7,13.5,44.3,20.2
		c12.1,106,60.3,208.7,139.5,287.9c44.8,44.7,97,79.9,155,104.5c177.9,75,390,39.9,534.8-104.5c43.6-43.6,78.1-94.4,102.5-150.6
		c49.7-10.3,82.3-26.4,95.3-47.7C1325.2,839.2,1324.1,822.8,1313.5,805.5z M1197,885.4c-33.1,5.9-74.3,9.4-122.5,9.9
		c-74.7,0.9-160.6-5-251-16.9c7.6-16.6,15.1-33.6,22.4-51c28.1,9.4,55.3,16.8,81.3,22.1c29.8,6,56.9,9,81.2,9
		c56.8,0,97.5-16.4,117.7-48.3c3.3-5.3,6-10.8,8.1-16.7h-29c-0.5,0.9-1,1.8-1.5,2.6c-14.9,23.7-48.3,36-95.2,35.9
		c-22.4,0-47.9-2.8-76-8.5c-24.4-5-50.1-11.9-76.5-20.7c7-17.5,13.8-35.2,20.3-53.3c17.7-48.7,32.8-97,45-143.3
		c99.1,14.6,202.6,15,302.1,7.5c6.3,30.5,9.5,61.7,9.5,93.4C1232.8,769,1220.8,828.9,1197,885.4z M593.5,1127.2
		c-14.1-5.1-21.2-25.3-24.8-41.4c-5.6-25.4-6.6-61-2.9-103.1c1.9-21.3,4.8-43.9,8.8-67.6c57.7,15.4,114.9,35.2,170.6,59
		c-12.5,21.6-25.2,41.7-37.9,59.9c-24.2,34.6-47.8,61.4-68.3,77.3C626,1121.3,607.6,1132.3,593.5,1127.2z M758,951.5
		c-58.3-25.1-118.2-45.9-178.7-61.9c2.1-11,4.5-22.2,7-33.5c16.8,3.8,33.9,7.5,51.2,11.1c50.6,10.3,101,19.1,150.4,26.2
		C778.1,913.6,768.1,933,758,951.5z M648.6,848.8c-19.5-4-38.8-8.2-57.7-12.6c8.9-37.1,19.9-75.7,32.6-115.1
		c66.4,40.8,134,74,197.9,97.6c-8,19.2-16.3,37.8-24.7,55.9C748.2,867.7,698.5,859.1,648.6,848.8z M486.4,348.4
		c36.9,75.6,108.1,138,184.6,179.3c-18.6,40.4-36.2,83.6-52.5,128.4c-3,8.4-6,16.7-8.9,25c-97-63.2-179.2-135.6-233.1-205.8l0,0
		C405.1,426.7,442.1,383.9,486.4,348.4z M901.3,278.4c14.1,5.1,21.2,25.3,24.8,41.4c5.6,25.4,6.6,61,2.9,103.1
		c-4,46.1-13.2,98.4-27,154.1c-67.5-11.6-134.9-30.8-197-60.9c26.5-55.2,54.4-104.4,82.4-144.5c24.2-34.6,47.8-61.4,68.3-77.3
		c10.7-8.3,25.1-17.2,37.8-17.2C896.2,277.1,898.9,277.5,901.3,278.4z M895.6,602.1c-11.9,44.8-26.6,91.5-43.7,138.6
		c-6.6,18.2-13.4,36.1-20.4,53.6c-64.2-23.6-132.4-57.3-199.4-98.9c3.5-10.1,7-20.3,10.7-30.5c15.9-43.8,33.1-85.9,51.2-125.4
		C757.3,570.1,825.8,589.9,895.6,602.1z M1098.2,382.3c59.6,59.6,99.1,131.1,119.1,206c-105.9,7.7-202.9,5.3-289.7-7.2
		c13.8-56.2,23-109.2,27.1-155.9c4.5-51.6,3.9-112.7-17-147.1C998.4,301.3,1052.5,336.5,1098.2,382.3z M773.4,247.7
		c31.8,0,63.1,3.2,93.7,9.6c-36.1,15.7-72.9,59.4-100.9,99.5c-28.6,41-57.2,91.3-84.2,147.5C609.1,464.7,540.3,404,507.4,332.5
		C584.3,277.8,676.6,247.7,773.4,247.7z M324.6,305.2c14.9-23.7,48.3-35.9,95.2-35.9c22.4,0,47.9,2.8,76,8.5
		c10.6,2.2,21.5,4.7,32.6,7.6l0,0c-66.9,38.7-125.9,94.7-169.8,164.9l0,0C317.2,388.8,304.8,336.7,324.6,305.2z M362.8,500.7
		C362.9,500.7,362.9,500.7,362.8,500.7c56.8,70.9,140.4,143.4,238.1,206.3c-13.9,42.2-25.7,83.6-35.2,123.4
		c-81-19.6-175.2-47.3-249.6-78.8c-6.2-61.7,0.5-124.1,19.1-183C342.4,545.7,352,522.1,362.8,500.7z M267.1,729.5
		c-87.8-42.8-127.9-84.2-110-113.5c14.5-23.8,67.2-39.9,148-45.8c-16.3,54.9-21.9,112-18.6,168.5
		C279.9,735.7,273.5,732.6,267.1,729.5z M561.1,850.2c-2.5,11.2-4.8,22.2-6.9,33c-5.6-1.4-11.3-2.7-16.9-4
		c-95.3-21.7-166.8-26.1-200-26.9c-8.2-24.7-14.2-50-18.1-75.9C384.2,801.5,457.3,825.5,561.1,850.2z M346.9,878.6
		c35.4,1.4,100.9,6.8,184.6,25.8c6,1.4,12,2.8,18,4.3c-4.3,25.1-7.5,49.2-9.5,71.7c-3.7,42.8-4,92.1,7.9,127.3
		c-36.3-20.4-69.6-45.7-99.5-75.6C404,987.6,369.7,935.4,346.9,878.6z M634.1,1145.2c34-17.8,68.1-58.7,94.4-96.4
		c13.6-19.4,27.1-41,40.5-64.2c77.2,34.9,151.3,77.9,221,127.9C875.2,1173.8,745.9,1180.8,634.1,1145.2z M1098.2,1032.1
		c-25.4,25.5-53.4,47.6-83.6,66.2c-73.2-53.5-151.4-99.3-232.9-136.4c11.2-20.5,22.2-42.2,33-64.8c74.6,9.9,146.3,15.8,211.8,17.4
		c17.1,0.5,33.7,0.5,49.8,0.4c41.7-0.5,78.9-3,110.7-7.4C1164.7,953.6,1134.9,995.5,1098.2,1032.1z"/>
	<g>
		<g>
			<path class="st8" d="M1087.8,881.6l-67.4,802c0,0-7.1,48.6,29.1,48.7c59.5,0.1,295.9,0,295.9,0s-44.7-10.1-44.2-32.9
				c0.6-26.8,78.8-825.4,78.8-825.4L1087.8,881.6z"/>
			<path class="st9" d="M1364.6,1717.8c-11.7,0-237.6,0.7-295.5,0c-25.2-0.3-29.7-22.4-29.9-36.8c-0.1-6.9,0.8-11.9,0.8-11.9
				l1.8-20.8l4.5-53.1l3.9-46.9l5.1-60.3l4.3-50.9l47.9-569.9l292.2-7.6c0,0-32.9,334.2-56.2,577.4c-2.6,27.1-5.1,53.1-7.4,77.4
				c-0.7,7.7-1.5,15.3-2.1,22.7c-2.2,23-4.1,44.2-5.9,62.8c-0.9,9.8-1.7,19-2.5,27.3c-3,32.8-4.7,53.8-4.7,57.7
				c0,2.3,0.2,4.5,0.6,6.5C1326.2,1716.9,1360.2,1717.8,1364.6,1717.8z"/>
			<polygon class="st9" points="378.2,445.2 542.5,1105.2 564.9,1195.5 641.5,1502.9 2063.1,1502.9 1781,445.2 			"/>
			<polygon class="st10" points="378.2,445.2 355.4,452.8 611.2,1525.9 641.5,1502.9 			"/>
			<polygon class="st8" points="611.2,1525.9 2024.1,1525.9 2063.1,1502.9 641.5,1502.9 			"/>
			<rect x="1107.4" y="1718.1" class="st11" width="305.9" height="14.5"/>
			<polygon class="st11" points="1994.2,1308 1763.5,459.2 375.9,459.2 375.9,445.2 1781,445.2 2010.9,1306.1 			"/>
			<polygon class="st8" points="1335.5,1525.9 1333.9,1537 1046.2,1595.1 1050.2,1548.2 1052.1,1525.9 			"/>
			<path class="st12" d="M1364.6,1717.8c-11.7,0-237.6,0.7-295.5,0c-25.2-0.3-29.7-22.4-29.9-36.8l286.3-53.9
				c-3,32.8-4.7,53.8-4.7,57.7c0,2.3,0.2,4.5,0.6,6.5C1326.2,1716.9,1360.2,1717.8,1364.6,1717.8z"/>
			<polygon class="st12" points="1266,1288.8 641.5,1502.9 564.9,1195.5 			"/>
			<polygon class="st13" points="378.2,445.2 1781,445.2 2008.7,1295.3 582.6,1295.3 			"/>
		</g>
		<path class="st8" d="M1390,1402.7c-4.1-20.8-24.2-37.7-45.1-37.7c-20.8,0-34.5,16.9-30.4,37.7s24.2,37.7,45.1,37.7
			C1380.4,1440.5,1394,1423.6,1390,1402.7z"/>
		<polygon class="st14" points="1942.5,1258.4 629,1258.4 480.2,665.8 468.8,620.4 459.1,581.6 451.3,550.6 436.3,490.8 
			1730.9,490.8 1731.8,494 1747.3,550.6 1755.9,581.6 1766.6,620.4 1779.1,665.8 		"/>
		<polygon class="st14" points="1942.5,1260.5 629,1260.5 480.2,667.9 468.8,622.4 459.1,583.7 451.3,552.6 436.3,492.8 
			1730.9,492.8 1731.8,496.1 1747.3,552.6 1755.9,583.7 1766.6,622.4 1779.1,667.9 		"/>
		<polygon class="st15" points="1747.3,550.6 451.3,550.6 436.3,490.8 1730.4,490.8 1731.8,494 		"/>
		<g>
			<path class="st14" d="M472.3,520.7c-1.6-6.3,2.3-11.4,8.5-11.4s12.6,5.1,14.2,11.4c1.6,6.3-2.3,11.4-8.5,11.4
				S473.9,527,472.3,520.7z"/>
			
				<ellipse transform="matrix(0.662 -0.7495 0.7495 0.662 -214.0488 566.8439)" class="st14" cx="521.5" cy="520.7" rx="10" ry="12.9"/>
			<path class="st14" d="M550.7,520.7c-1.6-6.3,2.3-11.4,8.5-11.4s12.6,5.1,14.2,11.4c1.6,6.3-2.3,11.4-8.5,11.4
				S552.3,527,550.7,520.7z"/>
		</g>
		<g>
			<path class="st16" d="M1038.1,1260.5H908.3c-1.2-10.2-2.3-20.9-3.3-32.1c-1.7-20.1-3.1-41.7-4.1-64.1c-0.2-5.2-0.4-10.4-0.6-15.7
				c-0.2-6.7-0.5-13.5-0.7-20.3c-0.3-11.6-0.6-23.3-0.7-35l0,0c-0.2-15-0.3-30.1-0.4-45.2l0,0c0-3.8,0-7.5,0-11.3l0,0
				c0-3.5,0-7,0-10.5c0.1-32.4,0.6-64.2,1.3-93.7c1.5-65.4,3.9-119.9,5.2-146.1l0,0c0.5-10.8,0.9-16.7,0.9-16.7l0,0
				c0.3,0,2.3,0.4,5.4,1.2c2.3,0.6,5.2,1.3,8.4,2.3l0,0c3,0.9,6.2,2,9.7,3.3l0,0c5.9,2.3,12.2,5.1,18.1,8.7c0.1,0,0.2,0.1,0.3,0.1
				c9.7,6,18.5,14,22.5,24.5c3.4,9,11.5,57.1,21.2,121c0.3,1.8,0.5,3.7,0.8,5.5c5.1,33.9,10.7,72,16.2,110.9
				c5.9,41.2,11.8,83.3,17.2,122.3C1030.3,1202.9,1034.6,1234.1,1038.1,1260.5z"/>
			<path class="st17" d="M1001.8,1260.5H850.6c-2.9-12.5-5.6-24.5-8-35.8c-6.6-31.1-11-56.6-10.8-70.3c0.1-6.4,2.5-11.4,6.7-15.3
				c2.9-2.6,6.5-4.8,10.8-6.4c12.8-4.8,31.1-5.6,50.3-4.4c6.5,0.4,13.1,1,19.6,1.8c35.9,4.4,69.3,13.3,69.3,13.3s2.2,9,4.9,24.8
				c2,11.8,4.2,27.5,5.8,45.9c1,10.7,1.7,22.4,2.2,34.9C1001.5,1252.7,1001.6,1256.6,1001.8,1260.5z"/>
			<path class="st18" d="M932,1154.6l-1.5,10.9l-7.3,53l-1.2,9.1l-4.5,32.9H759.8c-1.2-21.7-2.4-42.9-2.6-61.4c0-2,0-4.1,0-6
				c0-27.8,2.4-48.4,10.4-53.6c9-5.9,39-4.3,70.9-0.4c3.2,0.4,6.4,0.8,9.6,1.2c18.6,2.5,37.2,5.6,52.2,8.3
				c7.8,1.4,14.5,2.6,19.8,3.7C927.5,1153.7,932,1154.6,932,1154.6z"/>
			<path class="st6" d="M757.2,797c0,0,86.6-56,148.6-27.3c9.9,4.6,21.2,17.3,29.3,26.2c22.4,24.7,66.3,417.5,66.3,417.5
				s-124.5,42.2-244.2-14.3L757.2,797L757.2,797z"/>
			<path class="st16" d="M910.8,768.3c0,0,87.6,35.9,99.5,63.5s50.4,197,50.4,216.9s-67.2,4.4-78-27.6
				c-9-26.6-39.3-108.4-55.2-160.1L910.8,768.3z"/>
			<g>
				<path class="st19" d="M892.6,795.6c-19.1,3.8-47.2-0.2-67.8-13.8c9.3-22.2,13.1-39.7,14.5-51c0.1-0.6,0.1-1.2,0.2-1.8
					c0.6-5.9,0.5-9.9,0.2-11.7h49.5c0,0,13.5,6.2,13.5,10.5c0,2.3,0,4.5,0.1,6.6c0.1,5.7,0.3,10.7,0.6,14.9
					c0.9,13.9,2.5,20.4,2.5,20.4S911.9,791.8,892.6,795.6z"/>
				<path class="st20" d="M903.3,749.3c-37.5,7.2-59.2-13.2-64.1-18.5c-0.7-0.8-1-1.2-1-1.2c0.4-0.2,0.8-0.4,1.2-0.6
					c13.9-5.6,45.6-1.2,63.3,5.3C902.8,740,903,745,903.3,749.3z"/>
				<path class="st19" d="M827,709.2c6.7,36,53.2,34.8,73.3,32.6c5.7-0.6,9.2-1.4,9.2-1.4c6.4-1.7,9.9-11.7,11.6-24.9
					c3.3-26-0.9-64.2-5.3-74c-6.6-14.7-19.1-30.6-65.9-19.1C803.1,633.9,818.4,663,827,709.2z"/>
				<path class="st17" d="M917.5,621.4c-6.4-8.9-20-19.7-32.3-26.4c-26.5-14.3-60.4,0.5-60.5,0.5c-38.2,16.8-48.2,46.1-28,91.7
					c21.4,48.2,41.9,42.8,41.9,42.8s-4.3-2.7-3.9-17.7c0-0.9,0.1-1.6,0.1-2.2c0.2-3.1-0.9-6.2-3.2-8.2c-4.8-4.2-7.1-17.1-3.1-20.6
					c4.8-4.3,11.5,0.9,13.7,4.9c1.9,2.8,5.3,3.8,8.4,1.9c11.9-7.5,4.2-22.6,15.5-31.8c11.4-9.2,34.5-1.5,51.5-8.8
					C940,639.1,922.4,628.1,917.5,621.4z"/>
			</g>
			<path class="st16" d="M923.7,1260.5H735.2c1.3-39.1,3.1-85.7,4.9-133c0.5-12.2,1-24.5,1.4-36.7c0.2-5.2,0.4-10.3,0.6-15.4
				c4.2-104.9,8.3-199.7,9.2-204.8c2-11.5,3.8-21.4,5.9-29.9c5.9-24.9,13.3-38.5,29.3-50.2c1.6-1.2,14.4-7.7,25.7-13.3
				c9.2-4.6,17.5-8.6,17.7-8.7l0,0l0,0c1.9,0.9,3.9,3.5,6.1,7.4c2.2,3.9,4.5,9,6.8,15c8.6,22.1,17.9,56,24.4,81.3v0.1l0,0l0,0
				c4.2,16.3,7.2,29,8,32.7c1.4,6.2,3.3,18.1,5.6,34.2l0,0c3,22,6.7,51.9,10.5,85.8l0,0c0.4,3.5,0.8,7,1.2,10.6
				c0.5,4.1,0.9,8.2,1.4,12.3l0,0c0.1,1.3,0.3,2.7,0.4,4l0,0c1.5,13.4,3,27.3,4.5,41.4l0,0c1.3,11.6,18.9,20,20.1,31.8
				c0.1,0.9,0.2,2.6,0.3,5c0.2,5,0.5,12.9,0.8,22.1c0.1,4.1,0.3,8.4,0.4,12.8c0.7,19.7,1.5,41.2,2.5,51.6c0,0.5,0.1,1.1,0.1,1.9
				c0.1,2.1,0.2,5.1,0.3,8.9C923.6,1235.6,923.7,1247.2,923.7,1260.5z"/>
			<path class="st17" d="M795.1,912.8c-0.1,0.2-3,106.1,76.6,118.9c79.6,12.9,26.7,16.3,26.7,16.3s-149.8-6.4-152.3-10.3
				C743.7,1033.7,795.1,912.8,795.1,912.8z"/>
			<path class="st17" d="M862.4,1077.2c0,0-1.5,1.1-4.4,2.9l-0.1,0.1c-12.1,7.8-48.2,28.9-100.7,43.1c-5.5,1.5-11.2,2.9-17.1,4.2
				c0.5-12.2,0.9-24.5,1.4-36.7c-6.9-0.5-13.6-1.4-19.7-2.7c0.2-1.6,0.4-3.2,0.6-4.8c6.7-2.7,13.3-5.4,19.7-7.9c5.2-2,10.3-4,15-5.8
				c21.6-8.2,37.5-13.7,37.5-13.7l63.8,20.2L862.4,1077.2z"/>
			<path class="st16" d="M879.3,1075.4c0,0-8.2,2-21.3,4.7h-0.1c-24.1,4.8-64.5,11.6-100.7,11.3c-5.3-0.1-10.6-0.3-15.6-0.7
				c-6.9-0.5-13.6-1.4-19.7-2.7c-13.2-2.8-24.3-7.5-31.5-14.9c-53.8-54.8,29.3-251.4,46.8-270.5c20.4-22.3,57.6-30.2,78.2-32.9
				c0.9-0.1,1.7-0.2,2.5-0.3c7.2-0.9,11.9-1,12.1-1l0,0c0,0-1.6,5.2-4.3,14c-1,3.4-2.3,7.3-3.6,11.8c-12.6,41.4-37,122.7-47.7,168.5
				c-3.9,16.8-6,28.8-5.1,32.4c4.2,15.7,47.6,23.7,75.2,27.3c11.5,1.5,20.2,2.2,22.1,2.3c0.1,0,0.3,0,0.4,0l1.6,6.5l3.8,15.7
				l3.7,15.4L879.3,1075.4z"/>
			<polygon class="st9" points="1029.3,1169.7 844.6,1161.9 882,931.7 1066.7,939.5 			"/>
			<path class="st19" d="M866.9,1024.7c0,0,36-2.5,37.8,5.9c4.2,19.5-30.9,35.6-42.3,34.5C851,1063.9,858.6,1023.3,866.9,1024.7z"/>
			<path class="st19" d="M1056.6,986.2c0,0-34.4-10.8-38.1-3c-8.6,18,21.8,41.8,33.2,43.3C1063,1028.1,1065,986.9,1056.6,986.2z"/>
			<path class="st17" d="M833.7,756.8c0,0-15.1,7.2-22.7,18.1c0,0,56.5,98.2,56.3,97.2C867,871.3,848.1,769.4,833.7,756.8z"/>
			<path class="st17" d="M904.1,758.2c5,1.9,14.5,11.7,16.7,17.1l6.7,85.7c0,0-14.4-62.9-21.7-91.3
				C904,762.5,904.3,760.3,904.1,758.2z"/>
			<path class="st18" d="M943.3,934.3c0,0,1.5-6.4,9.9-5.6c8.4,0.7,55.6,3.1,55.6,3.1s9.1-0.1,8.3,5.7L943.3,934.3z"/>
			<path class="st6" d="M889.1,717.3c0,0,6.1,5.6,16,3.9c5.9-1,9.1-8.7,9.1-8.7S903,710.5,889.1,717.3z"/>
		</g>
		<g>
			<g>
				<polygon class="st6" points="1764.2,789 1627.8,789.5 1583.6,620.1 1720,619.6 				"/>
				<g>
					<polygon class="st7" points="1686.2,641.9 1629,642.1 1628.3,639.6 1685.5,639.3 					"/>
					<polygon class="st7" points="1695.3,648.8 1623.5,649.1 1622.8,646.6 1694.6,646.3 					"/>
					<g>
						<polygon class="st7" points="1715,683.3 1621.8,683.6 1621.1,681.1 1714.4,680.8 						"/>
						<polygon class="st7" points="1717.2,691.5 1623.9,691.9 1623.3,689.4 1716.5,689 						"/>
						<polygon class="st7" points="1719.3,699.8 1626.1,700.1 1625.4,697.6 1718.7,697.3 						"/>
						<polygon class="st7" points="1721.5,708.1 1628.2,708.4 1627.6,705.9 1720.9,705.6 						"/>
						<polygon class="st7" points="1723.7,716.3 1630.4,716.7 1629.7,714.2 1723,713.8 						"/>
					</g>
					<g>
						<polygon class="st7" points="1728.9,736.4 1635.6,736.8 1635,734.2 1728.3,733.9 						"/>
						<polygon class="st7" points="1731.1,744.7 1637.8,745 1637.1,742.5 1730.4,742.2 						"/>
						<polygon class="st7" points="1733.2,752.9 1639.9,753.3 1639.3,750.8 1732.6,750.4 						"/>
						<polygon class="st7" points="1735.4,761.2 1642.1,761.5 1641.4,759 1734.7,758.7 						"/>
						<polygon class="st7" points="1737.5,769.4 1644.3,769.8 1643.6,767.3 1736.9,766.9 						"/>
					</g>
				</g>
			</g>
			<g>
				<polygon class="st6" points="1819.2,999.4 1682.8,999.9 1638.5,830.6 1775,830.1 				"/>
				<g>
					<polygon class="st7" points="1741.1,852.3 1683.9,852.5 1683.3,850 1740.5,849.8 					"/>
					<polygon class="st7" points="1750.3,859.3 1678.4,859.5 1677.8,857 1749.6,856.8 					"/>
					<g>
						<polygon class="st7" points="1770,893.7 1676.7,894.1 1676.1,891.6 1769.4,891.2 						"/>
						<polygon class="st7" points="1772.2,902 1678.9,902.3 1678.2,899.8 1771.5,899.5 						"/>
						<polygon class="st7" points="1774.3,910.3 1681,910.6 1680.4,908.1 1773.7,907.7 						"/>
						<polygon class="st7" points="1776.5,918.5 1683.2,918.9 1682.5,916.3 1775.8,916 						"/>
						<polygon class="st7" points="1778.6,926.8 1685.4,927.1 1684.7,924.6 1778,924.3 						"/>
					</g>
					<g>
						<polygon class="st7" points="1783.9,946.9 1690.6,947.2 1689.9,944.7 1783.2,944.4 						"/>
						<polygon class="st7" points="1786,955.1 1692.8,955.5 1692.1,953 1785.4,952.6 						"/>
						<polygon class="st7" points="1788.2,963.4 1694.9,963.7 1694.3,961.2 1787.5,960.9 						"/>
						<polygon class="st7" points="1790.4,971.6 1697.1,972 1696.4,969.5 1789.7,969.1 						"/>
						<polygon class="st7" points="1792.5,979.9 1699.2,980.2 1698.6,977.7 1791.9,977.4 						"/>
					</g>
				</g>
			</g>
			<g>
				<polygon class="st6" points="1874.5,1211.3 1738.1,1211.8 1693.9,1042.4 1830.3,1041.9 				"/>
				<g>
					<polygon class="st7" points="1796.5,1064.2 1739.3,1064.4 1738.6,1061.9 1795.8,1061.7 					"/>
					<polygon class="st7" points="1805.6,1071.1 1733.8,1071.4 1733.1,1068.9 1804.9,1068.6 					"/>
					<g>
						<polygon class="st7" points="1825.3,1105.6 1732.1,1106 1731.4,1103.4 1824.7,1103.1 						"/>
						<polygon class="st7" points="1827.5,1113.9 1734.2,1114.2 1733.6,1111.7 1826.9,1111.4 						"/>
						<polygon class="st7" points="1829.7,1122.1 1736.4,1122.5 1735.7,1120 1829,1119.6 						"/>
						<polygon class="st7" points="1831.8,1130.4 1738.5,1130.7 1737.9,1128.2 1831.2,1127.9 						"/>
						<polygon class="st7" points="1834,1138.6 1740.7,1139 1740,1136.5 1833.3,1136.1 						"/>
					</g>
					<g>
						<polygon class="st7" points="1839.2,1158.7 1745.9,1159.1 1745.3,1156.6 1838.6,1156.2 						"/>
						<polygon class="st7" points="1841.4,1167 1748.1,1167.3 1747.4,1164.8 1840.7,1164.5 						"/>
						<polygon class="st7" points="1843.5,1175.3 1750.3,1175.6 1749.6,1173.1 1842.9,1172.7 						"/>
						<polygon class="st7" points="1845.7,1183.5 1752.4,1183.9 1751.8,1181.3 1845,1181 						"/>
						<polygon class="st7" points="1847.9,1191.8 1754.6,1192.1 1753.9,1189.6 1847.2,1189.3 						"/>
					</g>
				</g>
			</g>
			<g>
				<g>
					<polygon class="st6" points="1695.2,1212.7 1218,1214.5 1080.7,688.8 1142.9,621.8 1540.4,620.4 					"/>
					<polygon class="st7" points="1409,709.2 1240.8,709.8 1238.9,702.5 1407.1,701.8 					"/>
					<polygon class="st7" points="1435.9,729.7 1224.7,730.4 1222.8,723.1 1433.9,722.3 					"/>
					<g>
						<polygon class="st7" points="1493.9,831 1219.7,832 1217.7,824.6 1492,823.6 						"/>
						<polygon class="st7" points="1500.2,855.3 1226,856.3 1224.1,848.9 1498.3,847.9 						"/>
						<polygon class="st7" points="1506.6,879.5 1232.4,880.6 1230.4,873.2 1504.7,872.2 						"/>
						<polygon class="st7" points="1512.9,903.8 1238.7,904.8 1236.8,897.5 1511,896.5 						"/>
						<polygon class="st7" points="1519.3,928.1 1245,929.1 1243.1,921.7 1517.3,920.7 						"/>
					</g>
					<g>
						<polygon class="st7" points="1534.7,987.2 1260.5,988.2 1258.5,980.8 1532.8,979.8 						"/>
						<polygon class="st7" points="1541,1011.4 1266.8,1012.5 1264.9,1005.1 1539.1,1004.1 						"/>
						<polygon class="st7" points="1547.4,1035.7 1273.2,1036.7 1271.2,1029.4 1545.5,1028.4 						"/>
						<polygon class="st7" points="1553.7,1060 1279.5,1061 1277.6,1053.6 1551.8,1052.6 						"/>
						<polygon class="st7" points="1560.1,1084.3 1285.8,1085.3 1283.9,1077.9 1558.1,1076.9 						"/>
					</g>
				</g>
				<polygon class="st7" points="1080.7,688.8 1160.3,688.5 1142.9,621.8 				"/>
			</g>
		</g>
	</g>
	<g>
		<g>
			<g>
				<path class="st21" d="M2229.9,1625h-388.4v-137.2h389.7c30.3,0,54.9,24.6,54.9,54.9v26.2C2286,1599.9,2260.9,1625,2229.9,1625z"
					/>
				<path class="st13" d="M2617.6,1544.3v20.6c0,11-3,21.4-8.2,30.2c-10.4,17.9-29.8,29.9-52,29.9h-727.9c-4.8,0-8.7-3.9-8.7-8.7
					v-3.1c0-4.8,3.9-8.7,8.7-8.7h443.7c2.4-2.9,4.5-6,6.2-9.4c4.2-7.8,6.5-16.8,6.5-26.2v-26.2c0-4.8-0.6-9.5-1.8-14
					c-2-7.6-5.5-14.5-10.3-20.4h-444.4c-4.8,0-8.7-3.9-8.7-8.7v-3.1c0-4.8,3.9-8.7,8.7-8.7h731.5c25.8,0,47.5,17.3,54.3,40.9
					C2616.8,1533.7,2617.6,1538.9,2617.6,1544.3z"/>
				<path class="st22" d="M2615.4,1528.7h-331.2c-2-7.6-5.5-14.5-10.3-20.4h-444.4c-4.8,0-8.7-3.9-8.7-8.7v-3.1
					c0-4.8,3.9-8.7,8.7-8.7H2561C2586.9,1487.8,2608.7,1505.1,2615.4,1528.7z"/>
			</g>
			<polygon class="st23" points="1841.5,1556.4 1895.4,1558.7 1841.5,1560.1 			"/>
			<polygon class="st23" points="1841.5,1578 1969.7,1580.3 1841.5,1581.7 			"/>
		</g>
		<g>
			<g>
				<g>
					<path class="st16" d="M1934.1,1731.5h413.5v-106.7h-416.9c-28.5,0-51.7,23.1-51.7,51.7l0,0
						C1879.1,1706.8,1903.7,1731.5,1934.1,1731.5z"/>
					<path class="st21" d="M2323.9,1731.5h470.6v-106.7h-471.8c-29,0-52.5,23.5-52.5,52.5v0.4
						C2270.2,1707.4,2294.2,1731.5,2323.9,1731.5z"/>
					<path class="st16" d="M2238.7,1731.5h572.1c4.4,0,8-3.6,8-8l0,0c0-4.4-3.6-8-8-8h-572.1c-4.4,0-8,3.6-8,8l0,0
						C2230.8,1727.9,2234.3,1731.5,2238.7,1731.5z"/>
					<path class="st16" d="M2238.7,1640.7h572.1c4.4,0,8-3.6,8-8l0,0c0-4.4-3.6-8-8-8h-572.1c-4.4,0-8,3.6-8,8l0,0
						C2230.8,1637.1,2234.3,1640.7,2238.7,1640.7z"/>
				</g>
				<polygon class="st23" points="2794.5,1678.1 2730.9,1679.9 2794.5,1681 				"/>
				<polygon class="st23" points="2794.5,1653.5 2643.3,1655.3 2794.5,1656.4 				"/>
			</g>
			<g>
				<path class="st13" d="M2644.8,1655c0,0,6.5,4.6,8.6,12.1c0.4,1.3,0.6,2.7,0.7,4.2c0.4,10,0,32.7,0,32.7l19.1-11.3l19.1,11.3
					v-30.7c0-5.8-1.6-11.5-4.7-15.2c-1.5-1.8-3.3-3.1-5.3-3.1H2644.8z"/>
				<path class="st24" d="M2644.8,1655c0,0,6.5,4.6,8.6,12.1l38.3,0.4c0,0-1.5-10.8-9.4-12.6L2644.8,1655L2644.8,1655z"/>
			</g>
		</g>
		<g>
			<g>
				<g>
					<path class="st21" d="M2275.8,1488.1h422.5v-156.8h-423.9c-33.8,0-61.3,27.4-61.3,61.3v32.9
						C2213.1,1460.1,2241.2,1488.1,2275.8,1488.1z"/>
					<path class="st25" d="M2223.1,1392.2v33.7c0.1,14.4,8.1,26.9,19.8,33.6c5.8,3.3,12.4,5.2,19.5,5.2h458.8c5.4,0,9.7,4.4,9.7,9.7
						v4c0,5.4-4.4,9.7-9.7,9.7h-792.6c-22.7,0-42.8-11.3-55-28.6c-7.7-10.9-12.1-24.2-12.1-38.5v-26.6c0-9.8,2.2-19.1,6.3-27.4
						c10.2-21.1,31.8-35.6,56.8-35.6h796.7c5.4,0,9.7,4.4,9.7,9.7v4c0,5.4-4.4,9.7-9.7,9.7h-460.2c-11,0-21,4.7-27.9,12.2
						C2226.9,1373.6,2223.1,1382.4,2223.1,1392.2z"/>
				</g>
				<polygon class="st23" points="2698.3,1409.7 2639.4,1412.4 2698.3,1414 				"/>
				<polygon class="st23" points="2698.3,1373.7 2558.3,1376.3 2698.3,1377.9 				"/>
			</g>
			<g>
				<path class="st9" d="M2559.8,1375.8c0,0,9.2,5,12.3,13.1c0.5,1.4,0.9,3,1,4.6c0.5,10.9,0,35.4,0,35.4l27.3-12.3l27.2,12.3v-33.3
					c0-6.3-2.3-12.4-6.7-16.4c-2.1-1.9-4.6-3.4-7.5-3.4L2559.8,1375.8L2559.8,1375.8z"/>
				<path class="st26" d="M2559.8,1375.8c0,0,9.2,5,12.3,13.1l54.6,0.5c0,0-2.1-11.7-13.4-13.6H2559.8z"/>
			</g>
		</g>
	</g>
	<g>
		<g>
			<path class="st17" d="M2283.1,1273.2c24.2,42.1,54.6,58.3,54.6,58.3h126.5C2464.3,1331.5,2264.7,1241.1,2283.1,1273.2z"/>
			<g>
				<path class="st19" d="M2380.3,1598.9c3.3,3.8,3.7,8,2.1,12.5c0,0,0,0,0,0.1c-3,8.3-13,17.7-24.6,27c-1.5,1.2-2.8,2.3-3.9,3.3
					c-0.3,0.3-0.6,0.5-0.9,0.8c-0.2,0.2-0.5,0.4-0.7,0.6c-10.8,10-6.7,12.2-26.1,32.4c-22.1,23-37.4,23.4-41.7,21.3
					c-3.7-1.8,3.8-14,12-27.7c0.4-0.7,0.8-1.3,1.2-2c1.1-1.8,2.2-3.7,3.3-5.5c9.7-16.5,7.2-24.3,4.9-48.8
					c-1.9-20-31.1-111.6-31.1-111.6l42.4-7.3c0,0,12.8,72.9,26.8,84.2c7.5,6,15.9,6.1,23.2,10.5c0.5,0.3,1,0.6,1.5,1
					C2372.8,1592.3,2377,1595.1,2380.3,1598.9z"/>
				<path class="st17" d="M2380.3,1598.9c3.3,3.8,3.7,8,2.1,12.5c0,0,0,0,0,0.1c-3.7,8.3-13.4,17.6-24.6,26.9
					c-1.5,1.2-2.8,2.3-3.9,3.4c-0.3,0.3-0.6,0.5-0.9,0.8c-0.2,0.2-0.5,0.4-0.7,0.6c-10.8,10-6.7,12.2-26.1,32.4
					c-22.1,23-37.4,23.4-41.7,21.3c-3.7-1.8,3.8-14,12-27.7c4.3-1.6,24.3-9.7,39.4-29.1c13.3-17,22.2-38.8,31.3-51.5
					c0.5,0.3,1,0.6,1.5,1C2372.8,1592.3,2377,1595.1,2380.3,1598.9z"/>
				<path class="st19" d="M2038.4,1572.4c-2.6,13.1-21.3,10.9-42.1,5.8s-15.9,1-45.6-2.3s-38.6-14.3-39.6-18.8
					c-0.8-3.9,13.8-5.3,29.6-7.1c2-0.2,4-0.5,5.9-0.7c17.7-2.2,30.7-13.7,46.9-23.1c15.3-8.9,38.1-45.2,38.1-45.2l40.7,3.2
					c0,0-21.3,32.4-29.6,46.5c-4.9,8.3-4.6,19.3-4,27.7C2039.1,1563.1,2039.4,1567.8,2038.4,1572.4z"/>
				<path class="st17" d="M1996.3,1578.2c-20.8-5.1-15.9,1-45.6-2.3s-38.6-14.3-39.6-18.8c-0.8-3.9,13.8-5.3,29.6-7.1l0.1,0.3
					c0,0,17.8,12.6,42.5,13.2c20.1,0.5,41.4-5.3,55.3-5.1c0.3,4.6,0.6,9.3-0.3,13.9C2035.8,1585.5,2017.2,1583.3,1996.3,1578.2z"/>
				<path class="st17" d="M2194.3,1312.3l38,102.3l49.6,133.6c0,0,13.5,1.3,26.4-2.4c11.9-3.4,25.5-12.4,25.5-12.4
					s-13.8-143.5-39.5-225.8c-6.6-21.1-14-38.2-22.1-47.9C2232.4,1212.6,2194.3,1312.3,2194.3,1312.3z"/>
				<path class="st16" d="M2233,1149.8c24.9-8,96,2.3,167.3,16.3l14.9-24.6l154.2-12c0,0,50.9,112.8,23,184.7
					c-4.1,10.6-12.2,17.3-26.1,17.6c0,0-2.2,0-2.3,0c0,0-91.8-0.1-121.6-0.1c-76.7,0-162.3-52.7-173.3-54.9
					c-18.1-3.6-25.4,32.6-43.5,70.7S2055.2,1516,2055.2,1516s-23.4,0.2-33.1-3.4c-10.4-3.9-14.2-9-14.2-9S2176.8,1167.9,2233,1149.8
					z"/>
				<path class="st17" d="M2416.2,929c54.9,30.2,166.3,92.9,166.9,92.5c0,0,40.9,15.4,64.2,0c38.7-25.7,59.5-94.9-11.3-154.4
					c-35.3-29.7-60.4-36.9-64.2-84.3c-2.1-25.7-37.2-110.6-95.7-102.8c-4.9,0.7-34.9,2.1-54.7,12.4
					C2371,718.9,2333.9,917.3,2416.2,929z"/>
				<path class="st19" d="M2462.2,903.3c-0.2,0.2,27,9.5,45.2,1.4c17.1-7.6,30.1-35.8,29.9-35.8c-7.8-0.4-16.4-7.2-23-51.9l-3.3,1.2
					l-55.8,20.1c0,0,4,17.9,6.7,35C2464.1,887.6,2465.3,901.3,2462.2,903.3z"/>
				<path class="st27" d="M2455.2,838.3c0,0,4,17.9,6.7,35c32.1-5.8,44.7-37.7,49.2-55.1L2455.2,838.3z"/>
				<path class="st19" d="M2446.9,856.1c0,0,76.4-10.3,69.3-57.7c-7.1-47.5-2.1-80.8-51.1-76.2c-49.1,4.5-55.8,24.1-57.3,40.5
					C2406.3,779,2426.8,857.5,2446.9,856.1z"/>
				<path class="st17" d="M2410.5,736.6c0,0,48.9,42.1,82.2,45.5s45.9-7.3,45.9-7.3s-19.6-16.3-31.4-42.6
					c-3.5-7.7-10.8-13.1-19.3-13.8C2464.1,716.4,2419.1,715.5,2410.5,736.6z"/>
				<path class="st17" d="M2441.1,732.8c0,0-16.4,15.8-21.5,27.6c-5,11.3-6.5,38.4-2.5,49.2c0,0-25.5-49.6-11.1-73.6
					C2421.3,710.3,2441.1,732.8,2441.1,732.8z"/>
				<path class="st6" d="M2397.9,1015.8c2.3,154.6,0.6,122.3,17.5,137c4.1,3.5,15.5,5.6,30.6,6.6c47.4,3.1,130.8-4.7,133.9-13.4
					c10.9-30.3,3.2-39.7,12.3-86.2c1-4.9,2.1-10.3,3.5-16.1c7.6-31.9,15-42.7-12-94c-24.5-46.4-49.9-84.1-52.2-82.7
					c-64.6,38.3-69.8,6.1-69.8,6.1S2396.7,940.4,2397.9,1015.8z"/>
				<path class="st16" d="M2232.4,1414.6l49.6,133.6c0,0,13.5,1.3,26.4-2.4c11.9-3.4,25.5-12.4,25.5-12.4s-13.8-143.5-39.5-225.8
					L2232.4,1414.6z"/>
				<path class="st6" d="M2461.9,873.2c0,0-66.5,11.3-74.3,39.9s-53.7,196.8-53.7,196.8s33.8,6.1,49.4-9.5
					c15.6-15.6,54.3-144.8,54.3-144.8L2461.9,873.2z"/>
				<path class="st28" d="M2446,1159.5c47.4,3.1,130.8-4.7,133.9-13.4c10.9-30.3,3.2-39.7,12.3-86.2l-22.9-64.4
					c0,0,3.8,71.7-17.4,90.6c-21.1,18.9-86.6,36.4-96.9,52.2C2450.3,1145.8,2447,1153.4,2446,1159.5z"/>
				<path class="st19" d="M2500.4,1129.3c0,0-46.8-10.4-54.3-6.3c-7.5,4.2-26,19.3-28.3,24.5c-2.3,5.3,16.8-4,23-5.7
					c4-1.1,14.6,2.6,19.9,4.4c22.1,7.4,35.6,3.6,35.6,3.6L2500.4,1129.3z"/>
				<path class="st6" d="M2531.7,867.1c0,0,62.8,3.9,84.6,34.2c30.6,42.7,91.3,224.6,56.5,248.9c-39.2,27.3-178.4,7.1-178.4,7.1
					s-4.6-21.6,1.8-32.1c6.4-10.5,111.2-27.4,116-32.2c4.8-4.8-60.4-94.2-60.4-108.7C2551.8,969.8,2531.7,867.1,2531.7,867.1z"/>
				<path class="st19" d="M2443.8,1136.1c0,0-9.8,12.6-13,14.2c-3.2,1.5-5.3,1.1-5.3,1.1l6.6-11.9L2443.8,1136.1z"/>
				<path class="st19" d="M2446,1123.1l-28.5,13.8c0,0,1.2,2,4.7,1.8s12.4-3.4,12.4-3.4L2446,1123.1z"/>
			</g>
			<g>
				<g>
					<polygon class="st9" points="2430.8,1169.6 2205.3,1169.6 2137.5,1001 2362.6,1001 					"/>
					<polygon class="st26" points="2202.7,1163 2500.4,1163 2500.4,1169.6 2205.3,1169.6 					"/>
				</g>
				<path class="st6" d="M2262.2,1085.3c-1.7-5.9,1.7-10.7,7.7-10.7s12.1,4.8,13.8,10.7c1.7,5.9-1.7,10.7-7.7,10.7
					C2270.1,1096,2263.9,1091.2,2262.2,1085.3z"/>
			</g>
		</g>
	</g>
	<g>
		<g>
			<path class="st15" d="M382.2,1235.8l-4.8,3.3c-5.1,3.6-12.2,2.3-15.7-2.9l-27.9-40.3c-3.6-5.1-2.3-12.2,2.9-15.7l6.9-4.8
				c1-0.7,2.4-0.4,3.1,0.6s0.4,2.4-0.6,3.1l-6.9,4.8c-3.1,2.2-3.9,6.5-1.7,9.6l27.9,40.3c2.2,3.1,6.5,3.9,9.6,1.7l4.8-3.3
				c3.1-2.2,3.9-6.5,1.7-9.6l-18.5-26.7c-0.7-1-0.4-2.4,0.6-3.1s2.4-0.4,3.1,0.6l18.5,26.7C388.6,1225.2,387.3,1232.3,382.2,1235.8z
				"/>
		</g>
		<g>
			<path class="st15" d="M412.8,1275.6l-8.6,6c-8,5.5-19.3,3.1-25.3-5.5l-42-60.6c-0.7-1-0.4-2.4,0.6-3.1s2.4-0.4,3.1,0.6l42,60.6
				c4.5,6.6,13.1,8.5,19.1,4.4l8.6-6c6-4.1,7.2-12.9,2.6-19.4l-47.8-69c-4.5-6.6-13.1-8.5-19.1-4.4c-1,0.7-2.4,0.4-3.1-0.6
				s-0.4-2.4,0.6-3.1c8-5.5,19.3-3.1,25.3,5.5l47.8,69C422.5,1258.5,420.8,1270,412.8,1275.6z"/>
		</g>
	</g>
	<g>
		<g>
			<path class="st15" d="M470.5,1591.9l1,8.5c1.1,9.1-5.4,17.4-14.5,18.5l-71.6,8.7c-9.1,1.1-17.4-5.4-18.5-14.5l-1.5-12.2
				c-0.2-1.8,1.1-3.4,2.8-3.6c1.8-0.2,3.4,1.1,3.6,2.8l1.5,12.2c0.7,5.5,5.7,9.5,11.3,8.8l71.6-8.7c5.5-0.7,9.5-5.7,8.8-11.3l-1-8.5
				c-0.7-5.5-5.7-9.5-11.3-8.8l-47.5,5.8c-1.8,0.2-3.4-1.1-3.6-2.8c-0.2-1.8,1.1-3.4,2.8-3.6l47.5-5.8
				C461.1,1576.3,469.4,1582.8,470.5,1591.9z"/>
		</g>
		<g>
			<path class="st15" d="M543.2,1579.3l1.9,15.3c1.7,14.2-9.3,27.3-24.5,29.1L413,1636.8c-1.8,0.2-3.4-1.1-3.6-2.8
				c-0.2-1.8,1.1-3.4,2.8-3.6l107.6-13.1c11.6-1.4,20.1-11.2,18.8-21.9l-1.9-15.3c-1.3-10.6-11.8-18.1-23.5-16.7l-122.5,14.9
				c-11.6,1.4-20.1,11.2-18.8,21.9c0.2,1.8-1.1,3.4-2.8,3.6c-1.8,0.2-3.4-1.1-3.6-2.8c-1.7-14.2,9.3-27.3,24.5-29.1l122.6-14.9
				C527.7,1555.1,541.5,1565.1,543.2,1579.3z"/>
		</g>
	</g>
	<ellipse class="st9" cx="1700.4" cy="579" rx="9.9" ry="9.9"/>
	<path class="st29" d="M3040.6,1738.4H146.9c-1.8,0-3.3-1.5-3.3-3.3v-1.1c0-1.8,1.5-3.3,3.3-3.3h2893.6c1.8,0,3.3,1.5,3.3,3.3v1.1
		C3043.9,1736.9,3042.4,1738.4,3040.6,1738.4z"/>
</g>
</svg>
