<?xml version="1.0" encoding="utf-8"?>
<!-- Generator: Adobe Illustrator 23.0.0, SVG Export Plug-In . SVG Version: 6.00 Build 0)  -->
<svg version="1.1" id="Layer_1" xmlns="http://www.w3.org/2000/svg" xmlns:xlink="http://www.w3.org/1999/xlink" x="0px" y="0px"
	 viewBox="0 0 1366 768" style="enable-background:new 0 0 1366 768;" xml:space="preserve">
<style type="text/css">
	.st0{fill:url(#SVGID_1_);}
	.st1{fill:none;stroke:#000000;stroke-miterlimit:10;}
	.st2{fill:#DFEBFD;}
	.st3{fill:#BED7FB;}
	.st4{fill:#9EC3F6;}
	.st5{fill:#CDE0FB;}
	.st6{fill:#FFFFFF;}
	.st7{fill:#ADCBF9;}
	.st8{fill:#D86713;}
	.st9{fill:#F99746;}
	.st10{fill:#EE9849;}
	.st11{fill:#F1A34F;}
	.st12{opacity:0.4;fill:#D86713;}
	.st13{fill:#699DEE;}
	.st14{fill:#E9F3FE;}
	.st15{fill:#AFCDFB;}
	.st16{fill:#2B478B;}
	.st17{fill:#233862;}
	.st18{fill:#C65447;}
	.st19{fill:#FFB27D;}
	.st20{fill:#E2915A;}
	.st21{fill:#FCECDB;}
	.st22{fill:#548EE2;}
	.st23{fill:#F4D2B8;}
	.st24{fill:#568CDB;}
	.st25{fill:#B5453C;}
	.st26{fill:#ED7D2B;}
	.st27{fill:#ED975D;}
	.st28{fill:#EBF3FF;}
	.st29{fill:#2E3552;}
</style>
<g>
	
		<image style="overflow:visible;opacity:0.75;" width="1765" height="913" xlink:href="40652BFC.png"  transform="matrix(1 0 0 1 -172 -143)">
	</image>
	<g>
		<linearGradient id="SVGID_1_" gradientUnits="userSpaceOnUse" x1="-159.5" y1="306" x2="1566.9011" y2="306">
			<stop  offset="1.246007e-07" style="stop-color:#1B1464"/>
			<stop  offset="1" style="stop-color:#0071BC"/>
		</linearGradient>
		<path class="st0" d="M-139.5,742.5c98-167,452-285,938-136s636,63,749-23c91.2-69.4-169.5-625.3-153-667
			c-518-15.7-1036-31.3-1554-47C-152.8,160.5-146.2,451.5-139.5,742.5z"/>
		<path class="st1" d="M-139.5,742.5c98-167,452-285,938-136s636,63,749-23c91.2-69.4-169.5-625.3-153-667
			c-518-15.7-1036-31.3-1554-47C-152.8,160.5-146.2,451.5-139.5,742.5z"/>
	</g>
</g>
<g>
	<g>
		
			<rect x="802.9" y="461.3" transform="matrix(0.7358 -0.6772 0.6772 0.7358 -114.0353 697.059)" class="st2" width="66.9" height="66.9"/>
		
			<rect x="784.8" y="468.3" transform="matrix(0.7358 -0.6772 0.6772 0.7358 -105.51 679.6287)" class="st3" width="66.9" height="13.5"/>
	</g>
	<g>
		<polygon class="st4" points="982,253.7 1015.7,258.5 993.3,243.2 992.2,248.1 984,249.6 		"/>
		<polygon class="st5" points="1015.7,258.5 987.6,244 960.1,242.6 		"/>
		<polygon class="st5" points="993.3,243.2 1015.7,258.5 998.4,234.6 		"/>
	</g>
	<g>
		<path class="st6" d="M1170.6,320.2l-8.5,6.1l-8.5-6c1.9-2.7,5-4.4,8.5-4.4C1165.6,315.9,1168.7,317.6,1170.6,320.2z"/>
		<g>
			<path class="st6" d="M1162.1,301c-8.5,0-16.1,4.2-20.6,10.7l5.4,3.8c3.4-4.8,9-7.9,15.3-7.9c6.2,0,11.8,3.1,15.2,7.8l5.4-3.8
				C1178,305.2,1170.5,301,1162.1,301z"/>
		</g>
		<g>
			<path class="st6" d="M1162.1,272.8c-18,0-34,9-43.7,22.7l5.4,3.8c8.5-12,22.5-19.9,38.3-19.9c15.7,0,29.6,7.7,38.1,19.6l5.3-3.8
				C1195.8,281.6,1180,272.8,1162.1,272.8z"/>
		</g>
		<g>
			<path class="st6" d="M1162.1,288.3c-12.8,0-24.2,6.4-31.1,16.1l5.4,3.8c5.7-8,15.1-13.3,25.8-13.3c10.5,0,19.9,5.2,25.6,13.1
				l5.3-3.8C1186.1,294.5,1174.8,288.3,1162.1,288.3z"/>
		</g>
	</g>
	<path class="st7" d="M986.1,357.2l-7.8-0.2c2.5,3.2,3.1,6.2,1.5,8.7c-1.6,2.6-5.3,4.7-10.8,6.3c4.2-11.2,6.3-23,6.3-35.1
		c0-26.2-10.2-51.8-29.4-71c-18.6-18.6-43.8-29.4-71-29.4c-15.3,0-30.1,3.4-43.5,9.9c0,0,0,0,0,0c-4.3-1.3-8.5-2.4-12.6-3.2
		c-20.5-4.2-35-1.3-40.9,8.1c-5.6,8.9-2.6,22.3,8.6,38c0,0,0,0,0,0c-2.5,4.6-4.9,10.1-6.7,15.3c-21,1.2-32.2,4.9-36.3,11.6
		c-4.7,7.8,1.7,18.2,22.5,28.4c2.9,1.4,5.9,2.8,9.1,4.2c2.5,21.8,12.4,43,28.7,59.3c9.2,9.2,20,16.4,31.9,21.5
		c36.6,15.5,80.3,8.2,110.1-21.5c9-9,16.1-19.4,21.1-31c10.2-2.1,17-5.4,19.6-9.8C988.5,364.1,988.3,360.7,986.1,357.2z
		 M962.1,373.6c-6.8,1.2-15.3,1.9-25.2,2c-15.4,0.2-33.1-1-51.7-3.5c1.6-3.4,3.1-6.9,4.6-10.5c5.8,1.9,11.4,3.5,16.7,4.6
		c6.1,1.2,11.7,1.9,16.7,1.9c11.7,0,20.1-3.4,24.2-10c0.7-1.1,1.2-2.2,1.7-3.4h-6c-0.1,0.2-0.2,0.4-0.3,0.5
		c-3.1,4.9-10,7.4-19.6,7.4c-4.6,0-9.9-0.6-15.6-1.7c-5-1-10.3-2.5-15.8-4.3c1.4-3.6,2.8-7.3,4.2-11c3.6-10,6.8-20,9.3-29.5
		c20.4,3,41.7,3.1,62.2,1.6c1.3,6.3,2,12.7,2,19.2C969.5,349.6,967,362,962.1,373.6z M837.8,423.4c-2.9-1.1-4.4-5.2-5.1-8.5
		c-1.1-5.2-1.4-12.6-0.6-21.2c0.4-4.4,1-9,1.8-13.9c11.9,3.2,23.7,7.2,35.1,12.2c-2.6,4.5-5.2,8.6-7.8,12.3
		c-5,7.1-9.8,12.6-14.1,15.9C844.5,422.2,840.7,424.5,837.8,423.4z M871.7,387.2c-12-5.2-24.3-9.4-36.8-12.7
		c0.4-2.3,0.9-4.6,1.4-6.9c3.5,0.8,7,1.6,10.5,2.3c10.4,2.1,20.8,3.9,31,5.4C875.8,379.4,873.8,383.4,871.7,387.2z M849.2,366.1
		c-4-0.8-8-1.7-11.9-2.6c1.8-7.6,4.1-15.6,6.7-23.7c13.7,8.4,27.6,15.3,40.8,20.1c-1.7,3.9-3.4,7.8-5.1,11.5
		C869.7,370,859.4,368.2,849.2,366.1z M815.7,263c7.6,15.6,22.3,28.4,38,36.9c-3.8,8.3-7.5,17.2-10.8,26.4c-0.6,1.7-1.2,3.4-1.8,5.2
		c-20-13-36.9-27.9-48-42.4c0,0,0,0,0,0C799,279.1,806.6,270.3,815.7,263z M901.2,248.6c2.9,1.1,4.4,5.2,5.1,8.5
		c1.1,5.2,1.4,12.6,0.6,21.2c-0.8,9.5-2.7,20.3-5.6,31.7c-13.9-2.4-27.8-6.3-40.6-12.5c5.5-11.4,11.2-21.5,17-29.8
		c5-7.1,9.8-12.6,14.1-15.9c2.2-1.7,5.2-3.5,7.8-3.5C900.2,248.3,900.7,248.4,901.2,248.6z M900,315.3c-2.5,9.2-5.5,18.8-9,28.6
		c-1.4,3.7-2.8,7.4-4.2,11c-13.2-4.9-27.3-11.8-41.1-20.4c0.7-2.1,1.4-4.2,2.2-6.3c3.3-9,6.8-17.7,10.5-25.8
		C871.5,308.7,885.6,312.7,900,315.3z M941.8,270c12.3,12.3,20.4,27,24.5,42.4c-21.8,1.6-41.8,1.1-59.7-1.5
		c2.8-11.6,4.7-22.5,5.6-32.1c0.9-10.6,0.8-23.2-3.5-30.3C921.2,253.3,932.3,260.5,941.8,270z M874.9,242.3c6.6,0,13,0.7,19.3,2
		c-7.4,3.2-15,12.2-20.8,20.5c-5.9,8.5-11.8,18.8-17.3,30.4c-15-8.2-29.2-20.7-36-35.4C835.9,248.5,854.9,242.3,874.9,242.3z
		 M782.4,254.1c3.1-4.9,10-7.4,19.6-7.4c4.6,0,9.9,0.6,15.6,1.7c2.2,0.4,4.4,1,6.7,1.6c0,0,0,0,0,0c-13.8,8-25.9,19.5-35,34
		c0,0,0,0,0,0C780.9,271.3,778.3,260.6,782.4,254.1z M790.3,294.4C790.3,294.4,790.3,294.4,790.3,294.4c11.7,14.6,28.9,29.5,49,42.5
		c-2.9,8.7-5.3,17.2-7.3,25.4c-16.7-4-36.1-9.7-51.4-16.2c-1.3-12.7,0.1-25.6,3.9-37.7C786.1,303.6,788.1,298.8,790.3,294.4z
		 M770.6,341.5c-18.1-8.8-26.3-17.3-22.6-23.4c3-4.9,13.8-8.2,30.5-9.4c-3.4,11.3-4.5,23.1-3.8,34.7
		C773.2,342.8,771.9,342.1,770.6,341.5z M831.1,366.4c-0.5,2.3-1,4.6-1.4,6.8c-1.2-0.3-2.3-0.6-3.5-0.8c-19.6-4.5-34.4-5.4-41.2-5.5
		c-1.7-5.1-2.9-10.3-3.7-15.6C794.7,356.3,809.7,361.3,831.1,366.4z M787,372.2c7.3,0.3,20.8,1.4,38,5.3c1.2,0.3,2.5,0.6,3.7,0.9
		c-0.9,5.2-1.5,10.1-1.9,14.8c-0.8,8.8-0.8,19,1.6,26.2c-7.5-4.2-14.3-9.4-20.5-15.6C798.8,394.6,791.7,383.9,787,372.2z
		 M846.2,427.1c7-3.7,14-12.1,19.4-19.9c2.8-4,5.6-8.4,8.3-13.2c15.9,7.2,31.2,16,45.5,26.3C895.8,433,869.2,434.4,846.2,427.1z
		 M941.8,403.8c-5.2,5.2-11,9.8-17.2,13.6c-15.1-11-31.2-20.5-48-28.1c2.3-4.2,4.6-8.7,6.8-13.4c15.4,2,30.1,3.3,43.6,3.6
		c3.5,0.1,6.9,0.1,10.3,0.1c8.6-0.1,16.2-0.6,22.8-1.5C955.4,387.7,949.3,396.3,941.8,403.8z"/>
	<g>
		<g>
			<path class="st8" d="M939.6,372.8L925.7,538c0,0-1.5,10,6,10c12.2,0,60.9,0,60.9,0s-9.2-2.1-9.1-6.8c0.1-5.5,16.2-170,16.2-170
				L939.6,372.8z"/>
			<path class="st9" d="M996.6,545c-2.4,0-48.9,0.2-60.9,0c-5.2-0.1-6.1-4.6-6.2-7.6c0-1.4,0.2-2.5,0.2-2.5l0.4-4.3l0.9-10.9
				l0.8-9.7l1-12.4l0.9-10.5l9.9-117.4l60.2-1.6c0,0-6.8,68.8-11.6,118.9c-0.5,5.6-1,10.9-1.5,15.9c-0.2,1.6-0.3,3.2-0.4,4.7
				c-0.4,4.7-0.9,9.1-1.2,12.9c-0.2,2-0.4,3.9-0.5,5.6c-0.6,6.8-1,11.1-1,11.9c0,0.5,0,0.9,0.1,1.3C988.7,544.9,995.7,545,996.6,545
				z"/>
			<polygon class="st9" points="793.5,283 827.3,418.9 831.9,437.5 847.7,500.8 1140.5,500.8 1082.4,283 			"/>
			<polygon class="st10" points="793.5,283 788.8,284.5 841.4,505.5 847.7,500.8 			"/>
			<polygon class="st8" points="841.4,505.5 1132.4,505.5 1140.5,500.8 847.7,500.8 			"/>
			
				<rect x="943.6" y="545.1" transform="matrix(-1 -1.224647e-16 1.224647e-16 -1 1950.2753 1093.2081)" class="st11" width="63" height="3"/>
			<polygon class="st11" points="1126.3,460.7 1078.8,285.8 793,285.8 793,283 1082.4,283 1129.7,460.3 			"/>
			<polygon class="st8" points="990.6,505.5 990.3,507.8 931,519.8 931.9,510.1 932.2,505.5 			"/>
			<path class="st12" d="M996.6,545c-2.4,0-48.9,0.2-60.9,0c-5.2-0.1-6.1-4.6-6.2-7.6l59-11.1c-0.6,6.8-1,11.1-1,11.9
				c0,0.5,0,0.9,0.1,1.3C988.7,544.9,995.7,545,996.6,545z"/>
			<polygon class="st12" points="976.3,456.7 847.7,500.8 831.9,437.5 			"/>
			<polygon class="st13" points="793.5,283 1082.4,283 1129.3,458 835.5,458 			"/>
		</g>
		<path class="st8" d="M1001.8,480.2c-0.8-4.3-5-7.8-9.3-7.8c-4.3,0-7.1,3.5-6.3,7.8s5,7.8,9.3,7.8
			C999.9,487.9,1002.7,484.5,1001.8,480.2z"/>
		<polygon class="st14" points="1115.6,450.4 845.1,450.4 814.5,328.4 812.1,319 810.1,311 808.5,304.7 805.4,292.3 1072.1,292.3 
			1072.2,293 1075.4,304.7 1077.2,311 1079.4,319 1082,328.4 		"/>
		<polygon class="st14" points="1115.6,450.9 845.1,450.9 814.5,328.8 812.1,319.4 810.1,311.5 808.5,305.1 805.4,292.7 
			1072.1,292.7 1072.2,293.4 1075.4,305.1 1077.2,311.5 1079.4,319.4 1082,328.8 		"/>
		<polygon class="st15" points="1075.4,304.7 808.5,304.7 805.4,292.3 1072,292.3 1072.2,293 		"/>
		<g>
			<path class="st14" d="M812.8,298.5c-0.3-1.3,0.5-2.3,1.8-2.3s2.6,1,2.9,2.3s-0.5,2.3-1.8,2.3S813.2,299.8,812.8,298.5z"/>
			<ellipse transform="matrix(0.662 -0.7495 0.7495 0.662 54.4596 717.7383)" class="st14" cx="823" cy="298.5" rx="2.1" ry="2.6"/>
			<path class="st14" d="M829,298.5c-0.3-1.3,0.5-2.3,1.8-2.3s2.6,1,2.9,2.3s-0.5,2.3-1.8,2.3S829.3,299.8,829,298.5z"/>
		</g>
		<g>
			<path class="st16" d="M929.4,450.9h-26.7c-0.3-2.1-0.5-4.3-0.7-6.6c-0.4-4.1-0.6-8.6-0.8-13.2c0-1.1-0.1-2.1-0.1-3.2
				c-0.1-1.4-0.1-2.8-0.1-4.2c-0.1-2.4-0.1-4.8-0.2-7.2c0,0,0,0,0,0c0-3.1-0.1-6.2-0.1-9.3c0,0,0,0,0,0c0-0.8,0-1.5,0-2.3v0
				c0-0.7,0-1.4,0-2.2c0-6.7,0.1-13.2,0.3-19.3c0.3-13.5,0.8-24.7,1.1-30.1v0c0.1-2.2,0.2-3.4,0.2-3.4c0,0,0,0,0,0
				c0.1,0,0.5,0.1,1.1,0.2c0.5,0.1,1.1,0.3,1.7,0.5h0c0.6,0.2,1.3,0.4,2,0.7c0,0,0,0,0,0c1.2,0.5,2.5,1.1,3.7,1.8c0,0,0,0,0.1,0
				c2,1.2,3.8,2.9,4.6,5.1c0.7,1.8,2.4,11.8,4.4,24.9c0.1,0.4,0.1,0.8,0.2,1.1c1.1,7,2.2,14.8,3.3,22.8c1.2,8.5,2.4,17.2,3.5,25.2
				C927.8,439,928.6,445.4,929.4,450.9z"/>
			<path class="st17" d="M921.9,450.9h-31.1c-0.6-2.6-1.2-5-1.7-7.4c-1.4-6.4-2.3-11.7-2.2-14.5c0-1.3,0.5-2.4,1.4-3.2
				c0.6-0.5,1.3-1,2.2-1.3c2.6-1,6.4-1.2,10.4-0.9c1.3,0.1,2.7,0.2,4,0.4c7.4,0.9,14.3,2.7,14.3,2.7s0.5,1.9,1,5.1
				c0.4,2.4,0.9,5.7,1.2,9.5c0.2,2.2,0.4,4.6,0.4,7.2C921.8,449.3,921.9,450.1,921.9,450.9z"/>
			<path class="st18" d="M907.5,429l-0.3,2.2l-1.5,10.9l-0.3,1.9l-0.9,6.8h-32.4c-0.3-4.5-0.5-8.8-0.5-12.6c0-0.4,0-0.8,0-1.2
				c0-5.7,0.5-10,2.1-11c1.9-1.2,8-0.9,14.6-0.1c0.7,0.1,1.3,0.2,2,0.3c3.8,0.5,7.7,1.2,10.7,1.7c1.6,0.3,3,0.5,4.1,0.8
				C906.6,428.9,907.5,429,907.5,429z"/>
			<path class="st6" d="M871.5,355.4c0,0,17.8-11.5,30.6-5.6c2,0.9,4.4,3.6,6,5.4c4.6,5.1,13.7,86,13.7,86s-25.6,8.7-50.3-2.9V355.4
				z"/>
			<path class="st16" d="M903.1,349.5c0,0,18,7.4,20.5,13.1c2.4,5.7,10.4,40.6,10.4,44.7c0,4.1-13.8,0.9-16.1-5.7
				c-1.8-5.5-8.1-22.3-11.4-33L903.1,349.5z"/>
			<g>
				<path class="st19" d="M899.4,355.1c-3.9,0.8-9.7-0.1-14-2.8c1.9-4.6,2.7-8.2,3-10.5c0-0.1,0-0.2,0-0.4c0.1-1.2,0.1-2,0-2.4h10.2
					c0,0,2.8,1.3,2.8,2.2c0,0.5,0,0.9,0,1.4c0,1.2,0.1,2.2,0.1,3.1c0.2,2.9,0.5,4.2,0.5,4.2S903.4,354.3,899.4,355.1z"/>
				<path class="st20" d="M901.6,345.6c-7.7,1.5-12.2-2.7-13.2-3.8c-0.1-0.2-0.2-0.2-0.2-0.2c0.1,0,0.2-0.1,0.3-0.1
					c2.9-1.2,9.4-0.2,13,1.1C901.5,343.7,901.5,344.7,901.6,345.6z"/>
				<path class="st19" d="M885.9,337.3c1.4,7.4,11,7.2,15.1,6.7c1.2-0.1,1.9-0.3,1.9-0.3c1.3-0.4,2-2.4,2.4-5.1
					c0.7-5.4-0.2-13.2-1.1-15.2c-1.4-3-3.9-6.3-13.6-3.9C881,321.8,884.1,327.8,885.9,337.3z"/>
				<path class="st17" d="M904.5,319.2c-1.3-1.8-4.1-4.1-6.7-5.4c-5.5-2.9-12.4,0.1-12.5,0.1c-7.9,3.5-9.9,9.5-5.8,18.9
					c4.4,9.9,8.6,8.8,8.6,8.8s-0.9-0.6-0.8-3.6c0-0.2,0-0.3,0-0.4c0-0.6-0.2-1.3-0.7-1.7c-1-0.9-1.5-3.5-0.6-4.2
					c1-0.9,2.4,0.2,2.8,1c0.4,0.6,1.1,0.8,1.7,0.4c2.5-1.5,0.9-4.6,3.2-6.5c2.3-1.9,7.1-0.3,10.6-1.8
					C909.2,322.9,905.5,320.6,904.5,319.2z"/>
			</g>
			<path class="st16" d="M905.8,450.9H867c0.3-8,0.6-17.7,1-27.4c0.1-2.5,0.2-5.1,0.3-7.6c0-1.1,0.1-2.1,0.1-3.2
				c0.9-21.6,1.7-41.1,1.9-42.2c0.4-2.4,0.8-4.4,1.2-6.2c1.2-5.1,2.7-7.9,6-10.3c0.3-0.2,3-1.6,5.3-2.7c1.9-0.9,3.6-1.8,3.6-1.8v0h0
				c0.4,0.2,0.8,0.7,1.3,1.5c0.4,0.8,0.9,1.9,1.4,3.1c1.8,4.6,3.7,11.5,5,16.7c0,0,0,0,0,0c0,0,0,0,0,0c0,0,0,0,0,0
				c0.9,3.4,1.5,6,1.6,6.7c0.3,1.3,0.7,3.7,1.2,7v0c0.6,4.5,1.4,10.7,2.2,17.7v0c0.1,0.7,0.2,1.4,0.2,2.2c0.1,0.8,0.2,1.7,0.3,2.5v0
				c0,0.3,0.1,0.6,0.1,0.8v0c0.3,2.8,0.6,5.6,0.9,8.5c0,0,0,0,0,0c0.3,2.4,3.9,4.1,4.1,6.6c0,0.2,0,0.5,0.1,1c0,1,0.1,2.7,0.2,4.6
				c0,0.8,0.1,1.7,0.1,2.6c0.1,4.1,0.3,8.5,0.5,10.6c0,0.1,0,0.2,0,0.4c0,0.4,0,1.1,0.1,1.8C905.8,445.7,905.8,448.1,905.8,450.9z"
				/>
			<path class="st17" d="M879.3,379.3c0,0-0.6,21.8,15.8,24.5c16.4,2.6,5.5,3.3,5.5,3.3s-30.9-1.3-31.4-2.1
				C868.7,404.2,879.3,379.3,879.3,379.3z"/>
			<path class="st17" d="M893.2,413.1c0,0-0.3,0.2-0.9,0.6c0,0,0,0,0,0c-2.5,1.6-9.9,6-20.7,8.9c-1.1,0.3-2.3,0.6-3.5,0.9
				c0.1-2.5,0.2-5.1,0.3-7.6c-1.4-0.1-2.8-0.3-4.1-0.6c0-0.3,0.1-0.7,0.1-1c1.4-0.6,2.7-1.1,4.1-1.6c1.1-0.4,2.1-0.8,3.1-1.2
				c4.4-1.7,7.7-2.8,7.7-2.8l13.1,4.2L893.2,413.1z"/>
			<path class="st16" d="M896.7,412.7c0,0-1.7,0.4-4.4,1c0,0,0,0,0,0c-5,1-13.3,2.4-20.7,2.3c-1.1,0-2.2-0.1-3.2-0.1
				c-1.4-0.1-2.8-0.3-4.1-0.6c-2.7-0.6-5-1.5-6.5-3.1c-11.1-11.3,6-51.8,9.6-55.7c4.2-4.6,11.9-6.2,16.1-6.8c0.2,0,0.3,0,0.5-0.1
				c1.5-0.2,2.4-0.2,2.5-0.2c0,0,0,0,0,0s-0.3,1.1-0.9,2.9c-0.2,0.7-0.5,1.5-0.7,2.4c-2.6,8.5-7.6,25.3-9.8,34.7
				c-0.8,3.5-1.2,5.9-1,6.7c0.9,3.2,9.8,4.9,15.5,5.6c2.4,0.3,4.2,0.5,4.6,0.5c0,0,0.1,0,0.1,0l0.3,1.3l0.8,3.2l0.8,3.2L896.7,412.7
				z"/>
			<polygon class="st9" points="927.6,432.2 889.5,430.6 897.2,383.1 935.3,384.8 			"/>
			<path class="st19" d="M894.1,402.3c0,0,7.4-0.5,7.8,1.2c0.9,4-6.4,7.3-8.7,7.1C890.8,410.4,892.4,402,894.1,402.3z"/>
			<path class="st19" d="M933.2,394.4c0,0-7.1-2.2-7.8-0.6c-1.8,3.7,4.5,8.6,6.8,8.9C934.5,403,934.9,394.5,933.2,394.4z"/>
			<path class="st17" d="M887.3,347.1c0,0-3.1,1.5-4.7,3.7c0,0,11.6,20.2,11.6,20C894.1,370.7,890.2,349.7,887.3,347.1z"/>
			<path class="st17" d="M901.8,347.4c1,0.4,3,2.4,3.4,3.5l1.4,17.6c0,0-3-13-4.5-18.8C901.7,348.3,901.8,347.8,901.8,347.4z"/>
			<path class="st18" d="M909.8,383.7c0,0,0.3-1.3,2-1.2c1.7,0.2,11.5,0.6,11.5,0.6s1.9,0,1.7,1.2L909.8,383.7z"/>
			<path class="st6" d="M898.7,339c0,0,1.3,1.2,3.3,0.8c1.2-0.2,1.9-1.8,1.9-1.8S901.5,337.6,898.7,339z"/>
		</g>
		<g>
			<g>
				<polygon class="st6" points="1078.9,353.7 1050.8,353.9 1041.7,319 1069.8,318.9 				"/>
				<g>
					<polygon class="st7" points="1062.8,323.4 1051.1,323.5 1050.9,323 1062.7,322.9 					"/>
					<polygon class="st7" points="1064.7,324.9 1049.9,324.9 1049.8,324.4 1064.6,324.4 					"/>
					<g>
						<polygon class="st7" points="1068.8,332 1049.6,332.1 1049.4,331.5 1068.7,331.5 						"/>
						<polygon class="st7" points="1069.2,333.7 1050,333.8 1049.9,333.2 1069.1,333.2 						"/>
						<polygon class="st7" points="1069.7,335.4 1050.5,335.5 1050.3,334.9 1069.5,334.9 						"/>
						<polygon class="st7" points="1070.1,337.1 1050.9,337.2 1050.8,336.6 1070,336.6 						"/>
						<polygon class="st7" points="1070.6,338.8 1051.4,338.9 1051.2,338.3 1070.4,338.3 						"/>
					</g>
					<g>
						<polygon class="st7" points="1071.7,342.9 1052.4,343 1052.3,342.5 1071.5,342.4 						"/>
						<polygon class="st7" points="1072.1,344.6 1052.9,344.7 1052.7,344.2 1072,344.1 						"/>
						<polygon class="st7" points="1072.5,346.3 1053.3,346.4 1053.2,345.9 1072.4,345.8 						"/>
						<polygon class="st7" points="1073,348 1053.8,348.1 1053.6,347.6 1072.8,347.5 						"/>
						<polygon class="st7" points="1073.4,349.7 1054.2,349.8 1054.1,349.3 1073.3,349.2 						"/>
					</g>
				</g>
			</g>
			<g>
				<polygon class="st6" points="1090.2,397.1 1062.2,397.2 1053,362.3 1081.1,362.2 				"/>
				<g>
					<polygon class="st7" points="1074.2,366.8 1062.4,366.8 1062.3,366.3 1074,366.3 					"/>
					<polygon class="st7" points="1076,368.2 1061.3,368.3 1061.1,367.8 1075.9,367.7 					"/>
					<g>
						<polygon class="st7" points="1080.1,375.3 1060.9,375.4 1060.8,374.9 1080,374.8 						"/>
						<polygon class="st7" points="1080.6,377 1061.3,377.1 1061.2,376.6 1080.4,376.5 						"/>
						<polygon class="st7" points="1081,378.7 1061.8,378.8 1061.7,378.3 1080.9,378.2 						"/>
						<polygon class="st7" points="1081.4,380.4 1062.2,380.5 1062.1,380 1081.3,379.9 						"/>
						<polygon class="st7" points="1081.9,382.1 1062.7,382.2 1062.5,381.7 1081.8,381.6 						"/>
					</g>
					<g>
						<polygon class="st7" points="1083,386.3 1063.8,386.3 1063.6,385.8 1082.8,385.8 						"/>
						<polygon class="st7" points="1083.4,388 1064.2,388 1064.1,387.5 1083.3,387.5 						"/>
						<polygon class="st7" points="1083.9,389.7 1064.6,389.7 1064.5,389.2 1083.7,389.2 						"/>
						<polygon class="st7" points="1084.3,391.4 1065.1,391.4 1065,390.9 1084.2,390.9 						"/>
						<polygon class="st7" points="1084.8,393.1 1065.5,393.1 1065.4,392.6 1084.6,392.6 						"/>
					</g>
				</g>
			</g>
			<g>
				<polygon class="st6" points="1101.6,440.7 1073.5,440.8 1064.4,406 1092.5,405.8 				"/>
				<g>
					<polygon class="st7" points="1085.6,410.4 1073.8,410.5 1073.6,410 1085.4,409.9 					"/>
					<polygon class="st7" points="1087.4,411.9 1072.7,411.9 1072.5,411.4 1087.3,411.3 					"/>
					<g>
						<polygon class="st7" points="1091.5,419 1072.3,419 1072.2,418.5 1091.4,418.4 						"/>
						<polygon class="st7" points="1092,420.7 1072.7,420.7 1072.6,420.2 1091.8,420.1 						"/>
						<polygon class="st7" points="1092.4,422.4 1073.2,422.4 1073.1,421.9 1092.3,421.8 						"/>
						<polygon class="st7" points="1092.8,424.1 1073.6,424.1 1073.5,423.6 1092.7,423.5 						"/>
						<polygon class="st7" points="1093.3,425.8 1074.1,425.8 1073.9,425.3 1093.2,425.3 						"/>
					</g>
					<g>
						<polygon class="st7" points="1094.4,429.9 1075.2,430 1075,429.5 1094.2,429.4 						"/>
						<polygon class="st7" points="1094.8,431.6 1075.6,431.7 1075.5,431.2 1094.7,431.1 						"/>
						<polygon class="st7" points="1095.3,433.3 1076,433.4 1075.9,432.9 1095.1,432.8 						"/>
						<polygon class="st7" points="1095.7,435 1076.5,435.1 1076.4,434.6 1095.6,434.5 						"/>
						<polygon class="st7" points="1096.1,436.7 1076.9,436.8 1076.8,436.3 1096,436.2 						"/>
					</g>
				</g>
			</g>
			<g>
				<g>
					<polygon class="st6" points="1064.7,441 966.4,441.4 938.1,333.1 950.9,319.3 1032.8,319 					"/>
					<polygon class="st7" points="1005.8,337.3 971.1,337.4 970.7,335.9 1005.4,335.8 					"/>
					<polygon class="st7" points="1011.3,341.5 967.8,341.7 967.4,340.2 1010.9,340 					"/>
					<g>
						<polygon class="st7" points="1023.2,362.4 966.8,362.6 966.4,361.1 1022.9,360.9 						"/>
						<polygon class="st7" points="1024.6,367.4 968.1,367.6 967.7,366.1 1024.2,365.9 						"/>
						<polygon class="st7" points="1025.9,372.4 969.4,372.6 969,371.1 1025.5,370.9 						"/>
						<polygon class="st7" points="1027.2,377.4 970.7,377.6 970.3,376.1 1026.8,375.9 						"/>
						<polygon class="st7" points="1028.5,382.4 972,382.6 971.6,381.1 1028.1,380.9 						"/>
					</g>
					<g>
						<polygon class="st7" points="1031.7,394.6 975.2,394.8 974.8,393.3 1031.3,393.1 						"/>
						<polygon class="st7" points="1033,399.6 976.5,399.8 976.1,398.3 1032.6,398.1 						"/>
						<polygon class="st7" points="1034.3,404.6 977.8,404.8 977.4,403.3 1033.9,403.1 						"/>
						<polygon class="st7" points="1035.6,409.6 979.1,409.8 978.7,408.3 1035.2,408.1 						"/>
						<polygon class="st7" points="1036.9,414.6 980.4,414.8 980,413.3 1036.5,413.1 						"/>
					</g>
				</g>
				<polygon class="st7" points="938.1,333.1 954.5,333 950.9,319.3 				"/>
			</g>
		</g>
	</g>
	<g>
		<g>
			<g>
				<path class="st21" d="M1176,525.9h-81.1v-28.3h81.4c5.6,0,10.2,4.6,10.2,10.2v7.7C1186.4,521.3,1181.7,525.9,1176,525.9z"/>
				<path class="st13" d="M1254.7,509.3v4.3c0,2.3-0.6,4.4-1.7,6.2c-2.1,3.7-6.1,6.2-10.7,6.2h-149.9c-1,0-1.8-0.8-1.8-1.8v-0.6
					c0-1,0.8-1.8,1.8-1.8h91.4c0.5-0.6,0.9-1.2,1.3-1.9c0.9-1.6,1.3-3.5,1.3-5.4V509c0-1-0.1-2-0.4-2.9c-0.4-1.6-1.1-3-2.1-4.2
					h-91.5c-1,0-1.8-0.8-1.8-1.8v-0.6c0-1,0.8-1.8,1.8-1.8h150.7c5.3,0,9.8,3.6,11.2,8.4C1254.5,507.1,1254.7,508.2,1254.7,509.3z"
					/>
				<path class="st22" d="M1254.2,506.1H1186c-0.4-1.6-1.1-3-2.1-4.2h-91.5c-1,0-1.8-0.8-1.8-1.8v-0.6c0-1,0.8-1.8,1.8-1.8h150.7
					C1248.4,497.7,1252.8,501.2,1254.2,506.1z"/>
			</g>
			<polygon class="st23" points="1094.8,511.8 1105.9,512.3 1094.8,512.6 			"/>
			<polygon class="st23" points="1094.8,516.2 1121.2,516.7 1094.8,517 			"/>
		</g>
		<g>
			<g>
				<g>
					<path class="st16" d="M1110.8,547.9h88.2v-22h-88.7c-4.3,0-7.8,3.5-7.8,7.8v6C1102.6,544.2,1106.3,547.9,1110.8,547.9z"/>
					<path class="st21" d="M1191.2,547.9h99.9v-22H1191c-4.4,0-7.9,3.5-7.9,7.9v6C1183.1,544.2,1186.8,547.9,1191.2,547.9z"/>
					<path class="st16" d="M1176.7,547.9h117.8c0.9,0,1.6-0.7,1.6-1.6l0,0c0-0.9-0.7-1.6-1.6-1.6h-117.8c-0.9,0-1.6,0.7-1.6,1.6l0,0
						C1175,547.1,1175.7,547.9,1176.7,547.9z"/>
					<path class="st16" d="M1176.7,529.2h117.8c0.9,0,1.6-0.7,1.6-1.6l0,0c0-0.9-0.7-1.6-1.6-1.6h-117.8c-0.9,0-1.6,0.7-1.6,1.6l0,0
						C1175,528.4,1175.7,529.2,1176.7,529.2z"/>
				</g>
				<polygon class="st23" points="1291.1,536.9 1278,537.2 1291.1,537.5 				"/>
				<polygon class="st23" points="1291.1,531.8 1260,532.2 1291.1,532.4 				"/>
			</g>
			<g>
				<path class="st13" d="M1260.3,532.1c0,0,1.3,0.9,1.8,2.5c0.1,0.3,0.1,0.6,0.1,0.9c0.1,2.1,0,6.7,0,6.7l3.9-2.3l3.9,2.3v-6.3
					c0-1.2-0.3-2.4-1-3.1c-0.3-0.4-0.7-0.6-1.1-0.6H1260.3z"/>
				<path class="st24" d="M1260.3,532.1c0,0,1.3,0.9,1.8,2.5l7.9,0.1c0,0-0.3-2.2-1.9-2.6H1260.3z"/>
			</g>
		</g>
		<g>
			<g>
				<g>
					<path class="st21" d="M1183.3,497.7h88v-32.3H1183c-6.4,0-11.6,5.2-11.6,11.6v8.8C1171.4,492.4,1176.7,497.7,1183.3,497.7z"/>
					<path class="st25" d="M1173.4,478v6.9c0,3,1.7,5.5,4.1,6.9c1.2,0.7,2.6,1.1,4,1.1h94.5c1.1,0,2,0.9,2,2v0.8c0,1.1-0.9,2-2,2
						h-163.2c-4.7,0-8.8-2.3-11.3-5.9c-1.6-2.2-2.5-5-2.5-7.9v-5.5c0-2,0.5-3.9,1.3-5.6c2.1-4.3,6.5-7.3,11.7-7.3H1276
						c1.1,0,2,0.9,2,2v0.8c0,1.1-0.9,2-2,2h-94.8c-2.3,0-4.3,1-5.7,2.5C1174.2,474.2,1173.4,476,1173.4,478z"/>
				</g>
				<polygon class="st23" points="1271.3,481.6 1259.2,482.1 1271.3,482.5 				"/>
				<polygon class="st23" points="1271.3,474.2 1242.5,474.7 1271.3,475 				"/>
			</g>
			<g>
				<path class="st9" d="M1242.8,474.6c0,0,1.9,1,2.5,2.7c0.1,0.3,0.2,0.6,0.2,0.9c0.1,2.2,0,7.3,0,7.3l5.6-2.5l5.6,2.5v-6.9
					c0-1.3-0.5-2.6-1.4-3.4c-0.4-0.4-1-0.7-1.6-0.7H1242.8z"/>
				<path class="st26" d="M1242.8,474.6c0,0,1.9,1,2.5,2.7l11.3,0.1c0,0-0.4-2.4-2.8-2.8H1242.8z"/>
			</g>
		</g>
	</g>
	<g>
		<g>
			<path class="st17" d="M1185.8,453.5c5,8.7,11.2,12,11.2,12h26.1C1223.1,465.5,1182,446.9,1185.8,453.5z"/>
			<g>
				<path class="st19" d="M1205.8,520.6c0.7,0.8,0.8,1.6,0.4,2.6c0,0,0,0,0,0c-0.6,1.7-2.7,3.6-5.1,5.6c-0.3,0.2-0.6,0.5-0.8,0.7
					c-0.1,0.1-0.1,0.1-0.2,0.2c0,0-0.1,0.1-0.1,0.1c-2.2,2.1-1.4,2.5-5.4,6.7c-4.6,4.7-7.7,4.8-8.6,4.4c-0.8-0.4,0.8-2.9,2.5-5.7
					c0.1-0.1,0.2-0.3,0.2-0.4c0.2-0.4,0.5-0.8,0.7-1.1c2-3.4,1.5-5,1-10.1c-0.4-4.1-6.4-23-6.4-23l8.7-1.5c0,0,2.6,15,5.5,17.3
					c1.5,1.2,3.3,1.2,4.8,2.2c0.1,0.1,0.2,0.1,0.3,0.2C1204.3,519.2,1205.1,519.8,1205.8,520.6z"/>
				<path class="st17" d="M1205.8,520.6c0.7,0.8,0.8,1.6,0.4,2.6c0,0,0,0,0,0c-0.8,1.7-2.8,3.6-5.1,5.5c-0.3,0.3-0.6,0.5-0.8,0.7
					c-0.1,0.1-0.1,0.1-0.2,0.2c0,0-0.1,0.1-0.1,0.1c-2.2,2.1-1.4,2.5-5.4,6.7c-4.6,4.7-7.7,4.8-8.6,4.4c-0.8-0.4,0.8-2.9,2.5-5.7
					c0.9-0.3,5-2,8.1-6c2.7-3.5,4.6-8,6.4-10.6c0.1,0.1,0.2,0.1,0.3,0.2C1204.3,519.2,1205.1,519.8,1205.8,520.6z"/>
				<path class="st19" d="M1135.4,515.1c-0.5,2.7-4.4,2.2-8.7,1.2c-4.3-1-3.3,0.2-9.4-0.5c-6.1-0.7-8-3-8.1-3.9
					c-0.2-0.8,2.9-1.1,6.1-1.5c0.4,0,0.8-0.1,1.2-0.1c3.7-0.5,6.3-2.8,9.7-4.8c3.1-1.8,7.8-9.3,7.8-9.3l8.4,0.7c0,0-4.4,6.7-6.1,9.6
					c-1,1.7-0.9,4-0.8,5.7C1135.5,513.2,1135.6,514.1,1135.4,515.1z"/>
				<path class="st17" d="M1126.7,516.3c-4.3-1-3.3,0.2-9.4-0.5c-6.1-0.7-8-3-8.1-3.9c-0.2-0.8,2.9-1.1,6.1-1.5l0,0.1
					c0,0,3.7,2.6,8.7,2.7c4.1,0.1,8.5-1.1,11.4-1c0.1,0.9,0.1,1.9-0.1,2.9C1134.9,517.8,1131,517.3,1126.7,516.3z"/>
				<path class="st17" d="M1167.5,461.5l7.8,21.1l10.2,27.5c0,0,2.8,0.3,5.4-0.5c2.4-0.7,5.3-2.6,5.3-2.6s-2.8-29.5-8.1-46.5
					c-1.4-4.4-2.9-7.9-4.6-9.9C1175.3,441,1167.5,461.5,1167.5,461.5z"/>
				<path class="st16" d="M1175.5,428.1c5.1-1.7,19.8,0.5,34.5,3.3l3.1-5.1l31.8-2.5c0,0,10.5,23.2,4.7,38c-0.8,2.2-2.5,3.6-5.4,3.6
					c0,0-0.5,0-0.5,0c0,0-18.9,0-25,0c-15.8,0-33.4-10.9-35.7-11.3c-3.7-0.7-5.2,6.7-9,14.6c-3.7,7.8-35.1,34.7-35.1,34.7
					s-4.8,0-6.8-0.7c-2.1-0.8-2.9-1.8-2.9-1.8S1163.9,431.8,1175.5,428.1z"/>
				<path class="st17" d="M1213.2,382.6c11.3,6.2,34.2,19.1,34.4,19c0,0,8.4,3.2,13.2,0c8-5.3,12.2-19.5-2.3-31.8
					c-7.3-6.1-12.4-7.6-13.2-17.4c-0.4-5.3-7.7-22.8-19.7-21.2c-1,0.1-7.2,0.4-11.3,2.6C1203.9,339.3,1196.3,380.2,1213.2,382.6z"/>
				<path class="st19" d="M1222.7,377.3c0,0,5.6,1.9,9.3,0.3c3.5-1.6,6.2-7.4,6.2-7.4c-1.6-0.1-3.4-1.5-4.7-10.7l-0.7,0.2l-11.5,4.1
					c0,0,0.8,3.7,1.4,7.2C1223.1,374.1,1223.3,376.9,1222.7,377.3z"/>
				<path class="st27" d="M1221.2,363.9c0,0,0.8,3.7,1.4,7.2c6.6-1.2,9.2-7.8,10.1-11.3L1221.2,363.9z"/>
				<path class="st19" d="M1219.5,367.6c0,0,15.7-2.1,14.3-11.9c-1.5-9.8-0.4-16.6-10.5-15.7c-10.1,0.9-11.5,5-11.8,8.3
					C1211.2,351.7,1215.4,367.9,1219.5,367.6z"/>
				<path class="st17" d="M1212,343c0,0,10.1,8.7,16.9,9.4c6.9,0.7,9.4-1.5,9.4-1.5s-4-3.4-6.5-8.8c-0.7-1.6-2.2-2.7-4-2.8
					C1223.1,338.8,1213.8,338.6,1212,343z"/>
				<path class="st17" d="M1218.3,342.2c0,0-3.4,3.3-4.4,5.7c-1,2.3-1.3,7.9-0.5,10.1c0,0-5.3-10.2-2.3-15.2
					C1214.3,337.5,1218.3,342.2,1218.3,342.2z"/>
				<path class="st6" d="M1209.4,400.5c0.5,31.9,0.1,25.2,3.6,28.2c0.8,0.7,3.2,1.2,6.3,1.4c9.8,0.6,26.9-1,27.6-2.8
					c2.3-6.2,0.7-8.2,2.5-17.7c0.2-1,0.4-2.1,0.7-3.3c1.6-6.6,3.1-8.8-2.5-19.4c-5-9.6-10.3-17.3-10.8-17
					c-13.3,7.9-14.4,1.3-14.4,1.3S1209.2,384.9,1209.4,400.5z"/>
				<path class="st16" d="M1175.3,482.6l10.2,27.5c0,0,2.8,0.3,5.4-0.5c2.4-0.7,5.3-2.6,5.3-2.6s-2.8-29.5-8.1-46.5L1175.3,482.6z"
					/>
				<path class="st6" d="M1222.6,371.1c0,0-13.7,2.3-15.3,8.2c-1.6,5.9-11.1,40.5-11.1,40.5s7,1.3,10.2-2
					c3.2-3.2,11.2-29.8,11.2-29.8L1222.6,371.1z"/>
				<path class="st28" d="M1219.4,430.1c9.8,0.6,26.9-1,27.6-2.8c2.3-6.2,0.7-8.2,2.5-17.7l-4.7-13.3c0,0,0.8,14.8-3.6,18.7
					c-4.4,3.9-17.8,7.5-20,10.7C1220.2,427.2,1219.5,428.8,1219.4,430.1z"/>
				<path class="st19" d="M1230.5,423.8c0,0-9.6-2.1-11.2-1.3c-1.6,0.9-5.4,4-5.8,5.1c-0.5,1.1,3.5-0.8,4.7-1.2
					c0.8-0.2,3,0.5,4.1,0.9c4.5,1.5,7.3,0.7,7.3,0.7L1230.5,423.8z"/>
				<path class="st6" d="M1237,369.8c0,0,12.9,0.8,17.4,7c6.3,8.8,18.8,46.3,11.6,51.3c-8.1,5.6-36.7,1.5-36.7,1.5s-1-4.5,0.4-6.6
					c1.3-2.2,22.9-5.6,23.9-6.6c1-1-12.4-19.4-12.4-22.4C1241.1,391,1237,369.8,1237,369.8z"/>
				<path class="st19" d="M1218.9,425.2c0,0-2,2.6-2.7,2.9c-0.7,0.3-1.1,0.2-1.1,0.2l1.4-2.4L1218.9,425.2z"/>
				<path class="st19" d="M1219.4,422.6l-5.9,2.9c0,0,0.2,0.4,1,0.4c0.7,0,2.5-0.7,2.5-0.7L1219.4,422.6z"/>
			</g>
			<g>
				<g>
					<polygon class="st9" points="1216.2,432.1 1169.8,432.1 1155.8,397.4 1202.2,397.4 					"/>
					<polygon class="st26" points="1169.2,430.8 1230.5,430.8 1230.5,432.1 1169.8,432.1 					"/>
				</g>
				<path class="st6" d="M1181.5,414.8c-0.4-1.2,0.4-2.2,1.6-2.2c1.2,0,2.5,1,2.8,2.2c0.3,1.2-0.4,2.2-1.6,2.2
					C1183.1,417,1181.8,416,1181.5,414.8z"/>
			</g>
		</g>
	</g>
	<g>
		<g>
			<path class="st15" d="M794.3,445.8l-1,0.7c-1.1,0.7-2.5,0.5-3.2-0.6l-5.8-8.3c-0.7-1.1-0.5-2.5,0.6-3.2l1.4-1
				c0.2-0.1,0.5-0.1,0.6,0.1c0.1,0.2,0.1,0.5-0.1,0.6l-1.4,1c-0.6,0.4-0.8,1.3-0.4,2l5.8,8.3c0.4,0.6,1.3,0.8,2,0.4l1-0.7
				c0.6-0.4,0.8-1.3,0.4-2l-3.8-5.5c-0.1-0.2-0.1-0.5,0.1-0.6c0.2-0.1,0.5-0.1,0.6,0.1l3.8,5.5C795.6,443.6,795.3,445.1,794.3,445.8
				z"/>
		</g>
		<g>
			<path class="st15" d="M800.6,454l-1.8,1.2c-1.6,1.1-4,0.6-5.2-1.1l-8.6-12.5c-0.1-0.2-0.1-0.5,0.1-0.6c0.2-0.1,0.5-0.1,0.6,0.1
				l8.6,12.5c0.9,1.4,2.7,1.8,3.9,0.9l1.8-1.2c1.2-0.9,1.5-2.6,0.5-4l-9.8-14.2c-0.9-1.4-2.7-1.8-3.9-0.9c-0.2,0.1-0.5,0.1-0.6-0.1
				c-0.1-0.2-0.1-0.5,0.1-0.6c1.6-1.1,4-0.6,5.2,1.1l9.8,14.2C802.6,450.5,802.2,452.8,800.6,454z"/>
		</g>
	</g>
	<g>
		<g>
			<path class="st15" d="M812.5,519.1l0.2,1.8c0.2,1.9-1.1,3.6-3,3.8l-14.7,1.8c-1.9,0.2-3.6-1.1-3.8-3l-0.3-2.5
				c0-0.4,0.2-0.7,0.6-0.7c0.4,0,0.7,0.2,0.7,0.6l0.3,2.5c0.1,1.1,1.2,2,2.3,1.8l14.7-1.8c1.1-0.1,2-1.2,1.8-2.3l-0.2-1.8
				c-0.1-1.1-1.2-2-2.3-1.8l-9.8,1.2c-0.4,0-0.7-0.2-0.7-0.6c0-0.4,0.2-0.7,0.6-0.7l9.8-1.2C810.5,515.9,812.2,517.2,812.5,519.1z"
				/>
		</g>
		<g>
			<path class="st15" d="M827.5,516.5l0.4,3.1c0.4,2.9-1.9,5.6-5,6l-22.2,2.7c-0.4,0-0.7-0.2-0.7-0.6c0-0.4,0.2-0.7,0.6-0.7
				l22.2-2.7c2.4-0.3,4.1-2.3,3.9-4.5l-0.4-3.1c-0.3-2.2-2.4-3.7-4.8-3.4l-25.2,3.1c-2.4,0.3-4.1,2.3-3.9,4.5c0,0.4-0.2,0.7-0.6,0.7
				c-0.4,0-0.7-0.2-0.7-0.6c-0.4-2.9,1.9-5.6,5-6l25.2-3.1C824.3,511.5,827.1,513.6,827.5,516.5z"/>
		</g>
	</g>
	<ellipse transform="matrix(0.2298 -0.9732 0.9732 0.2298 518.7134 1276.3879)" class="st9" cx="1065.8" cy="310.5" rx="2" ry="2"/>
	<path class="st29" d="M1341.9,549.3H745.7c-0.3,0-0.6-0.3-0.6-0.6v-0.4c0-0.3,0.3-0.6,0.6-0.6h596.2c0.3,0,0.6,0.3,0.6,0.6v0.4
		C1342.5,549,1342.2,549.3,1341.9,549.3z"/>
</g>
</svg>
